<mxfile host="app.diagrams.net" modified="2023-08-28T15:23:48.067Z" agent="Mozilla/5.0 (Windows NT 10.0; Win64; x64) AppleWebKit/537.36 (KHTML, like Gecko) Chrome/114.0.0.0 Safari/537.36" etag="qBuowelK2iE1n431priT" version="21.6.9" type="device">
  <diagram name="Page-1" id="oa9ZiwRVUF44VXFrH1Qu">
    <mxGraphModel dx="1866" dy="-475" grid="1" gridSize="10" guides="1" tooltips="1" connect="1" arrows="1" fold="1" page="1" pageScale="1" pageWidth="850" pageHeight="1100" math="0" shadow="0">
      <root>
        <mxCell id="0" />
        <mxCell id="1" parent="0" />
        <mxCell id="WdmZOjRlPLhk_2zMzAdh-238" style="edgeStyle=orthogonalEdgeStyle;rounded=0;orthogonalLoop=1;jettySize=auto;html=1;endArrow=ERone;endFill=0;startArrow=ERmany;startFill=0;endSize=15;startSize=15;jumpStyle=arc;jumpSize=10;" parent="1" source="IWIvYSxlYLz9XEMbi_1u-7" target="WdmZOjRlPLhk_2zMzAdh-140" edge="1">
          <mxGeometry relative="1" as="geometry">
            <Array as="points">
              <mxPoint x="-390" y="1691" />
              <mxPoint x="-390" y="1691" />
            </Array>
          </mxGeometry>
        </mxCell>
        <mxCell id="WdmZOjRlPLhk_2zMzAdh-244" style="edgeStyle=orthogonalEdgeStyle;rounded=0;orthogonalLoop=1;jettySize=auto;html=1;startArrow=ERone;startFill=0;endArrow=ERzeroToMany;endFill=0;endSize=15;startSize=15;jumpStyle=arc;jumpSize=10;" parent="1" source="WdmZOjRlPLhk_2zMzAdh-49" target="WdmZOjRlPLhk_2zMzAdh-100" edge="1">
          <mxGeometry relative="1" as="geometry">
            <Array as="points">
              <mxPoint x="310" y="1570" />
            </Array>
          </mxGeometry>
        </mxCell>
        <mxCell id="WdmZOjRlPLhk_2zMzAdh-247" style="edgeStyle=orthogonalEdgeStyle;rounded=0;orthogonalLoop=1;jettySize=auto;html=1;startArrow=ERmandOne;startFill=0;endArrow=ERzeroToMany;endFill=0;endSize=15;startSize=15;jumpStyle=arc;jumpSize=10;" parent="1" source="WdmZOjRlPLhk_2zMzAdh-49" target="WdmZOjRlPLhk_2zMzAdh-162" edge="1">
          <mxGeometry relative="1" as="geometry">
            <Array as="points">
              <mxPoint x="110" y="1870" />
            </Array>
            <mxPoint x="-70" y="1825.0000000000002" as="targetPoint" />
          </mxGeometry>
        </mxCell>
        <mxCell id="WdmZOjRlPLhk_2zMzAdh-49" value="Patient" style="swimlane;fontStyle=0;childLayout=stackLayout;horizontal=1;startSize=26;fillColor=none;horizontalStack=0;resizeParent=1;resizeParentMax=0;resizeLast=0;collapsible=1;marginBottom=0;whiteSpace=wrap;html=1;" parent="1" vertex="1">
          <mxGeometry x="-4.5" y="1554" width="195" height="260" as="geometry" />
        </mxCell>
        <mxCell id="WdmZOjRlPLhk_2zMzAdh-50" value="patientID [PK]" style="text;strokeColor=none;fillColor=none;align=left;verticalAlign=top;spacingLeft=4;spacingRight=4;overflow=hidden;rotatable=0;points=[[0,0.5],[1,0.5]];portConstraint=eastwest;whiteSpace=wrap;html=1;" parent="WdmZOjRlPLhk_2zMzAdh-49" vertex="1">
          <mxGeometry y="26" width="195" height="26" as="geometry" />
        </mxCell>
        <mxCell id="quq6CdoQyoU4DA2Fi2xT-51" value="&lt;font color=&quot;#66b2ff&quot;&gt;lastName&lt;/font&gt;" style="text;align=left;verticalAlign=top;spacingLeft=4;spacingRight=4;overflow=hidden;rotatable=0;points=[[0,0.5],[1,0.5]];portConstraint=eastwest;whiteSpace=wrap;html=1;" parent="WdmZOjRlPLhk_2zMzAdh-49" vertex="1">
          <mxGeometry y="52" width="195" height="26" as="geometry" />
        </mxCell>
        <mxCell id="quq6CdoQyoU4DA2Fi2xT-50" value="&lt;font color=&quot;#3399ff&quot;&gt;firstName&lt;/font&gt;" style="text;strokeColor=none;fillColor=none;align=left;verticalAlign=top;spacingLeft=4;spacingRight=4;overflow=hidden;rotatable=0;points=[[0,0.5],[1,0.5]];portConstraint=eastwest;whiteSpace=wrap;html=1;" parent="WdmZOjRlPLhk_2zMzAdh-49" vertex="1">
          <mxGeometry y="78" width="195" height="26" as="geometry" />
        </mxCell>
        <mxCell id="WdmZOjRlPLhk_2zMzAdh-52" value="homeAddress [FK]" style="text;strokeColor=none;fillColor=none;align=left;verticalAlign=top;spacingLeft=4;spacingRight=4;overflow=hidden;rotatable=0;points=[[0,0.5],[1,0.5]];portConstraint=eastwest;whiteSpace=wrap;html=1;" parent="WdmZOjRlPLhk_2zMzAdh-49" vertex="1">
          <mxGeometry y="104" width="195" height="26" as="geometry" />
        </mxCell>
        <mxCell id="WdmZOjRlPLhk_2zMzAdh-53" value="dateOfBirth" style="text;strokeColor=none;fillColor=none;align=left;verticalAlign=top;spacingLeft=4;spacingRight=4;overflow=hidden;rotatable=0;points=[[0,0.5],[1,0.5]];portConstraint=eastwest;whiteSpace=wrap;html=1;" parent="WdmZOjRlPLhk_2zMzAdh-49" vertex="1">
          <mxGeometry y="130" width="195" height="26" as="geometry" />
        </mxCell>
        <mxCell id="WdmZOjRlPLhk_2zMzAdh-54" value="SSN" style="text;strokeColor=none;fillColor=none;align=left;verticalAlign=top;spacingLeft=4;spacingRight=4;overflow=hidden;rotatable=0;points=[[0,0.5],[1,0.5]];portConstraint=eastwest;whiteSpace=wrap;html=1;" parent="WdmZOjRlPLhk_2zMzAdh-49" vertex="1">
          <mxGeometry y="156" width="195" height="26" as="geometry" />
        </mxCell>
        <mxCell id="WdmZOjRlPLhk_2zMzAdh-55" value="insuranceMemberID" style="text;strokeColor=none;fillColor=none;align=left;verticalAlign=top;spacingLeft=4;spacingRight=4;overflow=hidden;rotatable=0;points=[[0,0.5],[1,0.5]];portConstraint=eastwest;whiteSpace=wrap;html=1;" parent="WdmZOjRlPLhk_2zMzAdh-49" vertex="1">
          <mxGeometry y="182" width="195" height="26" as="geometry" />
        </mxCell>
        <mxCell id="WdmZOjRlPLhk_2zMzAdh-56" value="deductibleProgress" style="text;strokeColor=none;fillColor=none;align=left;verticalAlign=top;spacingLeft=4;spacingRight=4;overflow=hidden;rotatable=0;points=[[0,0.5],[1,0.5]];portConstraint=eastwest;whiteSpace=wrap;html=1;" parent="WdmZOjRlPLhk_2zMzAdh-49" vertex="1">
          <mxGeometry y="208" width="195" height="26" as="geometry" />
        </mxCell>
        <mxCell id="WdmZOjRlPLhk_2zMzAdh-57" value="patientStatus [FK]" style="text;strokeColor=none;fillColor=none;align=left;verticalAlign=top;spacingLeft=4;spacingRight=4;overflow=hidden;rotatable=0;points=[[0,0.5],[1,0.5]];portConstraint=eastwest;whiteSpace=wrap;html=1;" parent="WdmZOjRlPLhk_2zMzAdh-49" vertex="1">
          <mxGeometry y="234" width="195" height="26" as="geometry" />
        </mxCell>
        <mxCell id="WdmZOjRlPLhk_2zMzAdh-68" value="Procedure Supply Requirements" style="swimlane;fontStyle=0;childLayout=stackLayout;horizontal=1;startSize=26;fillColor=none;horizontalStack=0;resizeParent=1;resizeParentMax=0;resizeLast=0;collapsible=1;marginBottom=0;whiteSpace=wrap;html=1;" parent="1" vertex="1">
          <mxGeometry x="1175" y="1580" width="200" height="234" as="geometry" />
        </mxCell>
        <mxCell id="WdmZOjRlPLhk_2zMzAdh-69" value="requirementID [PK]" style="text;strokeColor=none;fillColor=none;align=left;verticalAlign=top;spacingLeft=4;spacingRight=4;overflow=hidden;rotatable=0;points=[[0,0.5],[1,0.5]];portConstraint=eastwest;whiteSpace=wrap;html=1;" parent="WdmZOjRlPLhk_2zMzAdh-68" vertex="1">
          <mxGeometry y="26" width="200" height="26" as="geometry" />
        </mxCell>
        <mxCell id="WdmZOjRlPLhk_2zMzAdh-70" value="supplyCode &lt;font color=&quot;#66b2ff&quot;&gt;[FK]&lt;/font&gt;" style="text;strokeColor=none;fillColor=none;align=left;verticalAlign=top;spacingLeft=4;spacingRight=4;overflow=hidden;rotatable=0;points=[[0,0.5],[1,0.5]];portConstraint=eastwest;whiteSpace=wrap;html=1;" parent="WdmZOjRlPLhk_2zMzAdh-68" vertex="1">
          <mxGeometry y="52" width="200" height="26" as="geometry" />
        </mxCell>
        <mxCell id="WdmZOjRlPLhk_2zMzAdh-71" value="procedureCode [FK]" style="text;strokeColor=none;fillColor=none;align=left;verticalAlign=top;spacingLeft=4;spacingRight=4;overflow=hidden;rotatable=0;points=[[0,0.5],[1,0.5]];portConstraint=eastwest;whiteSpace=wrap;html=1;" parent="WdmZOjRlPLhk_2zMzAdh-68" vertex="1">
          <mxGeometry y="78" width="200" height="26" as="geometry" />
        </mxCell>
        <mxCell id="WdmZOjRlPLhk_2zMzAdh-72" value="item" style="text;strokeColor=none;fillColor=none;align=left;verticalAlign=top;spacingLeft=4;spacingRight=4;overflow=hidden;rotatable=0;points=[[0,0.5],[1,0.5]];portConstraint=eastwest;whiteSpace=wrap;html=1;" parent="WdmZOjRlPLhk_2zMzAdh-68" vertex="1">
          <mxGeometry y="104" width="200" height="26" as="geometry" />
        </mxCell>
        <mxCell id="WdmZOjRlPLhk_2zMzAdh-73" value="description" style="text;strokeColor=none;fillColor=none;align=left;verticalAlign=top;spacingLeft=4;spacingRight=4;overflow=hidden;rotatable=0;points=[[0,0.5],[1,0.5]];portConstraint=eastwest;whiteSpace=wrap;html=1;" parent="WdmZOjRlPLhk_2zMzAdh-68" vertex="1">
          <mxGeometry y="130" width="200" height="26" as="geometry" />
        </mxCell>
        <mxCell id="WdmZOjRlPLhk_2zMzAdh-74" value="quantity" style="text;strokeColor=none;fillColor=none;align=left;verticalAlign=top;spacingLeft=4;spacingRight=4;overflow=hidden;rotatable=0;points=[[0,0.5],[1,0.5]];portConstraint=eastwest;whiteSpace=wrap;html=1;" parent="WdmZOjRlPLhk_2zMzAdh-68" vertex="1">
          <mxGeometry y="156" width="200" height="26" as="geometry" />
        </mxCell>
        <mxCell id="WdmZOjRlPLhk_2zMzAdh-75" value="quantityUnit" style="text;strokeColor=none;fillColor=none;align=left;verticalAlign=top;spacingLeft=4;spacingRight=4;overflow=hidden;rotatable=0;points=[[0,0.5],[1,0.5]];portConstraint=eastwest;whiteSpace=wrap;html=1;" parent="WdmZOjRlPLhk_2zMzAdh-68" vertex="1">
          <mxGeometry y="182" width="200" height="26" as="geometry" />
        </mxCell>
        <mxCell id="WdmZOjRlPLhk_2zMzAdh-76" value="unitPrice" style="text;strokeColor=none;fillColor=none;align=left;verticalAlign=top;spacingLeft=4;spacingRight=4;overflow=hidden;rotatable=0;points=[[0,0.5],[1,0.5]];portConstraint=eastwest;whiteSpace=wrap;html=1;" parent="WdmZOjRlPLhk_2zMzAdh-68" vertex="1">
          <mxGeometry y="208" width="200" height="26" as="geometry" />
        </mxCell>
        <mxCell id="WdmZOjRlPLhk_2zMzAdh-78" value="Procedure Role Requirements" style="swimlane;fontStyle=0;childLayout=stackLayout;horizontal=1;startSize=26;fillColor=none;horizontalStack=0;resizeParent=1;resizeParentMax=0;resizeLast=0;collapsible=1;marginBottom=0;whiteSpace=wrap;html=1;" parent="1" vertex="1">
          <mxGeometry x="980" y="1650" width="180" height="234" as="geometry" />
        </mxCell>
        <mxCell id="WdmZOjRlPLhk_2zMzAdh-79" value="requirementID [PK]" style="text;strokeColor=none;fillColor=none;align=left;verticalAlign=top;spacingLeft=4;spacingRight=4;overflow=hidden;rotatable=0;points=[[0,0.5],[1,0.5]];portConstraint=eastwest;whiteSpace=wrap;html=1;" parent="WdmZOjRlPLhk_2zMzAdh-78" vertex="1">
          <mxGeometry y="26" width="180" height="26" as="geometry" />
        </mxCell>
        <mxCell id="WdmZOjRlPLhk_2zMzAdh-80" value="roleCode" style="text;strokeColor=none;fillColor=none;align=left;verticalAlign=top;spacingLeft=4;spacingRight=4;overflow=hidden;rotatable=0;points=[[0,0.5],[1,0.5]];portConstraint=eastwest;whiteSpace=wrap;html=1;" parent="WdmZOjRlPLhk_2zMzAdh-78" vertex="1">
          <mxGeometry y="52" width="180" height="26" as="geometry" />
        </mxCell>
        <mxCell id="WdmZOjRlPLhk_2zMzAdh-81" value="procedureCode [FK]" style="text;strokeColor=none;fillColor=none;align=left;verticalAlign=top;spacingLeft=4;spacingRight=4;overflow=hidden;rotatable=0;points=[[0,0.5],[1,0.5]];portConstraint=eastwest;whiteSpace=wrap;html=1;" parent="WdmZOjRlPLhk_2zMzAdh-78" vertex="1">
          <mxGeometry y="78" width="180" height="26" as="geometry" />
        </mxCell>
        <mxCell id="WdmZOjRlPLhk_2zMzAdh-82" value="requiredRole [FK]" style="text;strokeColor=none;fillColor=none;align=left;verticalAlign=top;spacingLeft=4;spacingRight=4;overflow=hidden;rotatable=0;points=[[0,0.5],[1,0.5]];portConstraint=eastwest;whiteSpace=wrap;html=1;" parent="WdmZOjRlPLhk_2zMzAdh-78" vertex="1">
          <mxGeometry y="104" width="180" height="26" as="geometry" />
        </mxCell>
        <mxCell id="WdmZOjRlPLhk_2zMzAdh-83" value="requiredDescription" style="text;strokeColor=none;fillColor=none;align=left;verticalAlign=top;spacingLeft=4;spacingRight=4;overflow=hidden;rotatable=0;points=[[0,0.5],[1,0.5]];portConstraint=eastwest;whiteSpace=wrap;html=1;" parent="WdmZOjRlPLhk_2zMzAdh-78" vertex="1">
          <mxGeometry y="130" width="180" height="26" as="geometry" />
        </mxCell>
        <mxCell id="WdmZOjRlPLhk_2zMzAdh-84" value="isOptional" style="text;strokeColor=none;fillColor=none;align=left;verticalAlign=top;spacingLeft=4;spacingRight=4;overflow=hidden;rotatable=0;points=[[0,0.5],[1,0.5]];portConstraint=eastwest;whiteSpace=wrap;html=1;" parent="WdmZOjRlPLhk_2zMzAdh-78" vertex="1">
          <mxGeometry y="156" width="180" height="26" as="geometry" />
        </mxCell>
        <mxCell id="WdmZOjRlPLhk_2zMzAdh-85" value="quantity" style="text;strokeColor=none;fillColor=none;align=left;verticalAlign=top;spacingLeft=4;spacingRight=4;overflow=hidden;rotatable=0;points=[[0,0.5],[1,0.5]];portConstraint=eastwest;whiteSpace=wrap;html=1;" parent="WdmZOjRlPLhk_2zMzAdh-78" vertex="1">
          <mxGeometry y="182" width="180" height="26" as="geometry" />
        </mxCell>
        <mxCell id="WdmZOjRlPLhk_2zMzAdh-86" value="cost" style="text;strokeColor=none;fillColor=none;align=left;verticalAlign=top;spacingLeft=4;spacingRight=4;overflow=hidden;rotatable=0;points=[[0,0.5],[1,0.5]];portConstraint=eastwest;whiteSpace=wrap;html=1;" parent="WdmZOjRlPLhk_2zMzAdh-78" vertex="1">
          <mxGeometry y="208" width="180" height="26" as="geometry" />
        </mxCell>
        <mxCell id="WdmZOjRlPLhk_2zMzAdh-88" value="Role" style="swimlane;fontStyle=0;childLayout=stackLayout;horizontal=1;startSize=26;fillColor=none;horizontalStack=0;resizeParent=1;resizeParentMax=0;resizeLast=0;collapsible=1;marginBottom=0;whiteSpace=wrap;html=1;" parent="1" vertex="1">
          <mxGeometry x="735" y="1730" width="160" height="104" as="geometry" />
        </mxCell>
        <mxCell id="WdmZOjRlPLhk_2zMzAdh-89" value="roleID [PK]" style="text;strokeColor=none;fillColor=none;align=left;verticalAlign=top;spacingLeft=4;spacingRight=4;overflow=hidden;rotatable=0;points=[[0,0.5],[1,0.5]];portConstraint=eastwest;whiteSpace=wrap;html=1;" parent="WdmZOjRlPLhk_2zMzAdh-88" vertex="1">
          <mxGeometry y="26" width="160" height="26" as="geometry" />
        </mxCell>
        <mxCell id="WdmZOjRlPLhk_2zMzAdh-90" value="title" style="text;strokeColor=none;fillColor=none;align=left;verticalAlign=top;spacingLeft=4;spacingRight=4;overflow=hidden;rotatable=0;points=[[0,0.5],[1,0.5]];portConstraint=eastwest;whiteSpace=wrap;html=1;" parent="WdmZOjRlPLhk_2zMzAdh-88" vertex="1">
          <mxGeometry y="52" width="160" height="26" as="geometry" />
        </mxCell>
        <mxCell id="WdmZOjRlPLhk_2zMzAdh-91" value="isProvider" style="text;strokeColor=none;fillColor=none;align=left;verticalAlign=top;spacingLeft=4;spacingRight=4;overflow=hidden;rotatable=0;points=[[0,0.5],[1,0.5]];portConstraint=eastwest;whiteSpace=wrap;html=1;" parent="WdmZOjRlPLhk_2zMzAdh-88" vertex="1">
          <mxGeometry y="78" width="160" height="26" as="geometry" />
        </mxCell>
        <mxCell id="WdmZOjRlPLhk_2zMzAdh-100" value="Appointment" style="swimlane;fontStyle=0;childLayout=stackLayout;horizontal=1;startSize=26;fillColor=none;horizontalStack=0;resizeParent=1;resizeParentMax=0;resizeLast=0;collapsible=1;marginBottom=0;whiteSpace=wrap;html=1;" parent="1" vertex="1">
          <mxGeometry x="280" y="1138" width="190" height="312" as="geometry" />
        </mxCell>
        <mxCell id="WdmZOjRlPLhk_2zMzAdh-101" value="appointmentID [PK]" style="text;strokeColor=none;fillColor=none;align=left;verticalAlign=top;spacingLeft=4;spacingRight=4;overflow=hidden;rotatable=0;points=[[0,0.5],[1,0.5]];portConstraint=eastwest;whiteSpace=wrap;html=1;" parent="WdmZOjRlPLhk_2zMzAdh-100" vertex="1">
          <mxGeometry y="26" width="190" height="26" as="geometry" />
        </mxCell>
        <mxCell id="WdmZOjRlPLhk_2zMzAdh-102" value="appointmentDate" style="text;strokeColor=none;fillColor=none;align=left;verticalAlign=top;spacingLeft=4;spacingRight=4;overflow=hidden;rotatable=0;points=[[0,0.5],[1,0.5]];portConstraint=eastwest;whiteSpace=wrap;html=1;" parent="WdmZOjRlPLhk_2zMzAdh-100" vertex="1">
          <mxGeometry y="52" width="190" height="26" as="geometry" />
        </mxCell>
        <mxCell id="WdmZOjRlPLhk_2zMzAdh-103" value="startTime" style="text;strokeColor=none;fillColor=none;align=left;verticalAlign=top;spacingLeft=4;spacingRight=4;overflow=hidden;rotatable=0;points=[[0,0.5],[1,0.5]];portConstraint=eastwest;whiteSpace=wrap;html=1;" parent="WdmZOjRlPLhk_2zMzAdh-100" vertex="1">
          <mxGeometry y="78" width="190" height="26" as="geometry" />
        </mxCell>
        <mxCell id="WdmZOjRlPLhk_2zMzAdh-104" value="endTime" style="text;strokeColor=none;fillColor=none;align=left;verticalAlign=top;spacingLeft=4;spacingRight=4;overflow=hidden;rotatable=0;points=[[0,0.5],[1,0.5]];portConstraint=eastwest;whiteSpace=wrap;html=1;" parent="WdmZOjRlPLhk_2zMzAdh-100" vertex="1">
          <mxGeometry y="104" width="190" height="26" as="geometry" />
        </mxCell>
        <mxCell id="WdmZOjRlPLhk_2zMzAdh-105" value="patientID [FK]" style="text;strokeColor=none;fillColor=none;align=left;verticalAlign=top;spacingLeft=4;spacingRight=4;overflow=hidden;rotatable=0;points=[[0,0.5],[1,0.5]];portConstraint=eastwest;whiteSpace=wrap;html=1;" parent="WdmZOjRlPLhk_2zMzAdh-100" vertex="1">
          <mxGeometry y="130" width="190" height="26" as="geometry" />
        </mxCell>
        <mxCell id="WdmZOjRlPLhk_2zMzAdh-106" value="providerID [FK]" style="text;strokeColor=none;fillColor=none;align=left;verticalAlign=top;spacingLeft=4;spacingRight=4;overflow=hidden;rotatable=0;points=[[0,0.5],[1,0.5]];portConstraint=eastwest;whiteSpace=wrap;html=1;" parent="WdmZOjRlPLhk_2zMzAdh-100" vertex="1">
          <mxGeometry y="156" width="190" height="26" as="geometry" />
        </mxCell>
        <mxCell id="WdmZOjRlPLhk_2zMzAdh-107" value="roomID [FK]" style="text;strokeColor=none;fillColor=none;align=left;verticalAlign=top;spacingLeft=4;spacingRight=4;overflow=hidden;rotatable=0;points=[[0,0.5],[1,0.5]];portConstraint=eastwest;whiteSpace=wrap;html=1;" parent="WdmZOjRlPLhk_2zMzAdh-100" vertex="1">
          <mxGeometry y="182" width="190" height="26" as="geometry" />
        </mxCell>
        <mxCell id="WdmZOjRlPLhk_2zMzAdh-108" value="procedureCode" style="text;strokeColor=none;fillColor=none;align=left;verticalAlign=top;spacingLeft=4;spacingRight=4;overflow=hidden;rotatable=0;points=[[0,0.5],[1,0.5]];portConstraint=eastwest;whiteSpace=wrap;html=1;" parent="WdmZOjRlPLhk_2zMzAdh-100" vertex="1">
          <mxGeometry y="208" width="190" height="26" as="geometry" />
        </mxCell>
        <mxCell id="WdmZOjRlPLhk_2zMzAdh-109" value="fee" style="text;strokeColor=none;fillColor=none;align=left;verticalAlign=top;spacingLeft=4;spacingRight=4;overflow=hidden;rotatable=0;points=[[0,0.5],[1,0.5]];portConstraint=eastwest;whiteSpace=wrap;html=1;" parent="WdmZOjRlPLhk_2zMzAdh-100" vertex="1">
          <mxGeometry y="234" width="190" height="26" as="geometry" />
        </mxCell>
        <mxCell id="tYauZJ5otqG5vfTE3sik-33" value="&lt;font color=&quot;#3399ff&quot;&gt;notes&lt;/font&gt;" style="text;strokeColor=none;fillColor=none;align=left;verticalAlign=top;spacingLeft=4;spacingRight=4;overflow=hidden;rotatable=0;points=[[0,0.5],[1,0.5]];portConstraint=eastwest;whiteSpace=wrap;html=1;" parent="WdmZOjRlPLhk_2zMzAdh-100" vertex="1">
          <mxGeometry y="260" width="190" height="26" as="geometry" />
        </mxCell>
        <mxCell id="tYauZJ5otqG5vfTE3sik-34" value="&lt;font color=&quot;#3399ff&quot;&gt;zippedAttachments&lt;/font&gt;" style="text;strokeColor=none;fillColor=none;align=left;verticalAlign=top;spacingLeft=4;spacingRight=4;overflow=hidden;rotatable=0;points=[[0,0.5],[1,0.5]];portConstraint=eastwest;whiteSpace=wrap;html=1;" parent="WdmZOjRlPLhk_2zMzAdh-100" vertex="1">
          <mxGeometry y="286" width="190" height="26" as="geometry" />
        </mxCell>
        <mxCell id="WdmZOjRlPLhk_2zMzAdh-237" style="edgeStyle=orthogonalEdgeStyle;rounded=0;orthogonalLoop=1;jettySize=auto;html=1;startArrow=ERmandOne;startFill=0;endArrow=ERmany;endFill=0;endSize=15;startSize=15;jumpStyle=arc;jumpSize=10;" parent="1" source="WdmZOjRlPLhk_2zMzAdh-111" target="WdmZOjRlPLhk_2zMzAdh-100" edge="1">
          <mxGeometry relative="1" as="geometry">
            <Array as="points">
              <mxPoint x="400" y="1723" />
            </Array>
          </mxGeometry>
        </mxCell>
        <mxCell id="WdmZOjRlPLhk_2zMzAdh-111" value="Staff" style="swimlane;fontStyle=0;childLayout=stackLayout;horizontal=1;startSize=26;fillColor=none;horizontalStack=0;resizeParent=1;resizeParentMax=0;resizeLast=0;collapsible=1;marginBottom=0;whiteSpace=wrap;html=1;" parent="1" vertex="1">
          <mxGeometry x="490" y="1652" width="175" height="442" as="geometry" />
        </mxCell>
        <mxCell id="WdmZOjRlPLhk_2zMzAdh-112" value="ID [PK]" style="text;strokeColor=none;fillColor=none;align=left;verticalAlign=top;spacingLeft=4;spacingRight=4;overflow=hidden;rotatable=0;points=[[0,0.5],[1,0.5]];portConstraint=eastwest;whiteSpace=wrap;html=1;" parent="WdmZOjRlPLhk_2zMzAdh-111" vertex="1">
          <mxGeometry y="26" width="175" height="26" as="geometry" />
        </mxCell>
        <mxCell id="WdmZOjRlPLhk_2zMzAdh-113" value="role [FK]" style="text;strokeColor=none;fillColor=none;align=left;verticalAlign=top;spacingLeft=4;spacingRight=4;overflow=hidden;rotatable=0;points=[[0,0.5],[1,0.5]];portConstraint=eastwest;whiteSpace=wrap;html=1;" parent="WdmZOjRlPLhk_2zMzAdh-111" vertex="1">
          <mxGeometry y="52" width="175" height="26" as="geometry" />
        </mxCell>
        <mxCell id="WdmZOjRlPLhk_2zMzAdh-114" value="&lt;font color=&quot;#3399ff&quot;&gt;firstName&lt;/font&gt;" style="text;strokeColor=none;fillColor=none;align=left;verticalAlign=top;spacingLeft=4;spacingRight=4;overflow=hidden;rotatable=0;points=[[0,0.5],[1,0.5]];portConstraint=eastwest;whiteSpace=wrap;html=1;" parent="WdmZOjRlPLhk_2zMzAdh-111" vertex="1">
          <mxGeometry y="78" width="175" height="26" as="geometry" />
        </mxCell>
        <mxCell id="quq6CdoQyoU4DA2Fi2xT-33" value="&lt;font color=&quot;#66b2ff&quot;&gt;lastName&lt;/font&gt;" style="text;align=left;verticalAlign=top;spacingLeft=4;spacingRight=4;overflow=hidden;rotatable=0;points=[[0,0.5],[1,0.5]];portConstraint=eastwest;whiteSpace=wrap;html=1;" parent="WdmZOjRlPLhk_2zMzAdh-111" vertex="1">
          <mxGeometry y="104" width="175" height="26" as="geometry" />
        </mxCell>
        <mxCell id="WdmZOjRlPLhk_2zMzAdh-115" value="department" style="text;strokeColor=none;fillColor=none;align=left;verticalAlign=top;spacingLeft=4;spacingRight=4;overflow=hidden;rotatable=0;points=[[0,0.5],[1,0.5]];portConstraint=eastwest;whiteSpace=wrap;html=1;" parent="WdmZOjRlPLhk_2zMzAdh-111" vertex="1">
          <mxGeometry y="130" width="175" height="26" as="geometry" />
        </mxCell>
        <mxCell id="quq6CdoQyoU4DA2Fi2xT-34" value="&lt;font color=&quot;#3399ff&quot;&gt;payType&lt;/font&gt;" style="text;strokeColor=none;fillColor=none;align=left;verticalAlign=top;spacingLeft=4;spacingRight=4;overflow=hidden;rotatable=0;points=[[0,0.5],[1,0.5]];portConstraint=eastwest;whiteSpace=wrap;html=1;" parent="WdmZOjRlPLhk_2zMzAdh-111" vertex="1">
          <mxGeometry y="156" width="175" height="26" as="geometry" />
        </mxCell>
        <mxCell id="quq6CdoQyoU4DA2Fi2xT-35" value="&lt;font color=&quot;#3399ff&quot;&gt;salary&lt;/font&gt;" style="text;strokeColor=none;fillColor=none;align=left;verticalAlign=top;spacingLeft=4;spacingRight=4;overflow=hidden;rotatable=0;points=[[0,0.5],[1,0.5]];portConstraint=eastwest;whiteSpace=wrap;html=1;" parent="WdmZOjRlPLhk_2zMzAdh-111" vertex="1">
          <mxGeometry y="182" width="175" height="26" as="geometry" />
        </mxCell>
        <mxCell id="quq6CdoQyoU4DA2Fi2xT-36" value="&lt;font color=&quot;#3399ff&quot;&gt;SSN&lt;/font&gt;" style="text;strokeColor=none;fillColor=none;align=left;verticalAlign=top;spacingLeft=4;spacingRight=4;overflow=hidden;rotatable=0;points=[[0,0.5],[1,0.5]];portConstraint=eastwest;whiteSpace=wrap;html=1;" parent="WdmZOjRlPLhk_2zMzAdh-111" vertex="1">
          <mxGeometry y="208" width="175" height="26" as="geometry" />
        </mxCell>
        <mxCell id="quq6CdoQyoU4DA2Fi2xT-37" value="&lt;font color=&quot;#3399ff&quot;&gt;Address&lt;/font&gt;" style="text;strokeColor=none;fillColor=none;align=left;verticalAlign=top;spacingLeft=4;spacingRight=4;overflow=hidden;rotatable=0;points=[[0,0.5],[1,0.5]];portConstraint=eastwest;whiteSpace=wrap;html=1;" parent="WdmZOjRlPLhk_2zMzAdh-111" vertex="1">
          <mxGeometry y="234" width="175" height="26" as="geometry" />
        </mxCell>
        <mxCell id="quq6CdoQyoU4DA2Fi2xT-38" value="&lt;font color=&quot;#3399ff&quot;&gt;DOB&lt;/font&gt;" style="text;strokeColor=none;fillColor=none;align=left;verticalAlign=top;spacingLeft=4;spacingRight=4;overflow=hidden;rotatable=0;points=[[0,0.5],[1,0.5]];portConstraint=eastwest;whiteSpace=wrap;html=1;" parent="WdmZOjRlPLhk_2zMzAdh-111" vertex="1">
          <mxGeometry y="260" width="175" height="26" as="geometry" />
        </mxCell>
        <mxCell id="Tyf-H2eqfvU3GgdiiMwc-2" value="&lt;font color=&quot;#3399ff&quot;&gt;taxFilingStatus [FK]&lt;/font&gt;" style="text;strokeColor=none;fillColor=none;align=left;verticalAlign=top;spacingLeft=4;spacingRight=4;overflow=hidden;rotatable=0;points=[[0,0.5],[1,0.5]];portConstraint=eastwest;whiteSpace=wrap;html=1;" parent="WdmZOjRlPLhk_2zMzAdh-111" vertex="1">
          <mxGeometry y="286" width="175" height="26" as="geometry" />
        </mxCell>
        <mxCell id="Tyf-H2eqfvU3GgdiiMwc-3" value="&lt;font color=&quot;#3399ff&quot;&gt;hasOtherJob&lt;/font&gt;" style="text;strokeColor=none;fillColor=none;align=left;verticalAlign=top;spacingLeft=4;spacingRight=4;overflow=hidden;rotatable=0;points=[[0,0.5],[1,0.5]];portConstraint=eastwest;whiteSpace=wrap;html=1;" parent="WdmZOjRlPLhk_2zMzAdh-111" vertex="1">
          <mxGeometry y="312" width="175" height="26" as="geometry" />
        </mxCell>
        <mxCell id="Tyf-H2eqfvU3GgdiiMwc-5" value="&lt;font color=&quot;#3399ff&quot;&gt;otherJobIncome&lt;/font&gt;" style="text;strokeColor=none;fillColor=none;align=left;verticalAlign=top;spacingLeft=4;spacingRight=4;overflow=hidden;rotatable=0;points=[[0,0.5],[1,0.5]];portConstraint=eastwest;whiteSpace=wrap;html=1;" parent="WdmZOjRlPLhk_2zMzAdh-111" vertex="1">
          <mxGeometry y="338" width="175" height="26" as="geometry" />
        </mxCell>
        <mxCell id="Tyf-H2eqfvU3GgdiiMwc-4" value="&lt;font color=&quot;#3399ff&quot;&gt;dependentTaxAdjustment&lt;/font&gt;" style="text;strokeColor=none;fillColor=none;align=left;verticalAlign=top;spacingLeft=4;spacingRight=4;overflow=hidden;rotatable=0;points=[[0,0.5],[1,0.5]];portConstraint=eastwest;whiteSpace=wrap;html=1;" parent="WdmZOjRlPLhk_2zMzAdh-111" vertex="1">
          <mxGeometry y="364" width="175" height="26" as="geometry" />
        </mxCell>
        <mxCell id="Tyf-H2eqfvU3GgdiiMwc-6" value="&lt;font color=&quot;#3399ff&quot;&gt;taxDeductions&lt;/font&gt;" style="text;strokeColor=none;fillColor=none;align=left;verticalAlign=top;spacingLeft=4;spacingRight=4;overflow=hidden;rotatable=0;points=[[0,0.5],[1,0.5]];portConstraint=eastwest;whiteSpace=wrap;html=1;" parent="WdmZOjRlPLhk_2zMzAdh-111" vertex="1">
          <mxGeometry y="390" width="175" height="26" as="geometry" />
        </mxCell>
        <mxCell id="Tyf-H2eqfvU3GgdiiMwc-7" value="&lt;font color=&quot;#3399ff&quot;&gt;otherTaxWithholding&lt;/font&gt;" style="text;strokeColor=none;fillColor=none;align=left;verticalAlign=top;spacingLeft=4;spacingRight=4;overflow=hidden;rotatable=0;points=[[0,0.5],[1,0.5]];portConstraint=eastwest;whiteSpace=wrap;html=1;" parent="WdmZOjRlPLhk_2zMzAdh-111" vertex="1">
          <mxGeometry y="416" width="175" height="26" as="geometry" />
        </mxCell>
        <mxCell id="WdmZOjRlPLhk_2zMzAdh-231" style="edgeStyle=orthogonalEdgeStyle;rounded=0;orthogonalLoop=1;jettySize=auto;html=1;endArrow=ERoneToMany;endFill=0;startArrow=ERmandOne;startFill=0;endSize=15;startSize=15;jumpStyle=arc;jumpSize=10;" parent="1" source="WdmZOjRlPLhk_2zMzAdh-116" target="WdmZOjRlPLhk_2zMzAdh-111" edge="1">
          <mxGeometry relative="1" as="geometry">
            <Array as="points">
              <mxPoint x="578" y="1590" />
              <mxPoint x="578" y="1590" />
            </Array>
          </mxGeometry>
        </mxCell>
        <mxCell id="WdmZOjRlPLhk_2zMzAdh-245" style="edgeStyle=orthogonalEdgeStyle;rounded=0;orthogonalLoop=1;jettySize=auto;html=1;startArrow=ERmandOne;startFill=0;endArrow=ERmany;endFill=0;endSize=15;startSize=15;jumpStyle=arc;jumpSize=10;" parent="1" source="WdmZOjRlPLhk_2zMzAdh-116" target="WdmZOjRlPLhk_2zMzAdh-124" edge="1">
          <mxGeometry relative="1" as="geometry">
            <Array as="points">
              <mxPoint x="568" y="1420" />
              <mxPoint x="568" y="1420" />
            </Array>
          </mxGeometry>
        </mxCell>
        <mxCell id="WdmZOjRlPLhk_2zMzAdh-116" value="Department" style="swimlane;fontStyle=0;childLayout=stackLayout;horizontal=1;startSize=26;fillColor=none;horizontalStack=0;resizeParent=1;resizeParentMax=0;resizeLast=0;collapsible=1;marginBottom=0;whiteSpace=wrap;html=1;" parent="1" vertex="1">
          <mxGeometry x="463.75" y="1489" width="207.5" height="78" as="geometry" />
        </mxCell>
        <mxCell id="WdmZOjRlPLhk_2zMzAdh-117" value="deptID [PK]" style="text;strokeColor=none;fillColor=none;align=left;verticalAlign=top;spacingLeft=4;spacingRight=4;overflow=hidden;rotatable=0;points=[[0,0.5],[1,0.5]];portConstraint=eastwest;whiteSpace=wrap;html=1;" parent="WdmZOjRlPLhk_2zMzAdh-116" vertex="1">
          <mxGeometry y="26" width="207.5" height="26" as="geometry" />
        </mxCell>
        <mxCell id="WdmZOjRlPLhk_2zMzAdh-118" value="deptName" style="text;strokeColor=none;fillColor=none;align=left;verticalAlign=top;spacingLeft=4;spacingRight=4;overflow=hidden;rotatable=0;points=[[0,0.5],[1,0.5]];portConstraint=eastwest;whiteSpace=wrap;html=1;" parent="WdmZOjRlPLhk_2zMzAdh-116" vertex="1">
          <mxGeometry y="52" width="207.5" height="26" as="geometry" />
        </mxCell>
        <mxCell id="tYauZJ5otqG5vfTE3sik-9" style="edgeStyle=orthogonalEdgeStyle;rounded=0;orthogonalLoop=1;jettySize=auto;html=1;endArrow=ERmandOne;endFill=0;startArrow=ERzeroToMany;startFill=0;endSize=15;startSize=15;jumpStyle=arc;jumpSize=10;" parent="1" source="WdmZOjRlPLhk_2zMzAdh-124" target="3rsIc_qw5QkhjrmrZdHb-17" edge="1">
          <mxGeometry relative="1" as="geometry">
            <Array as="points">
              <mxPoint x="700" y="1460" />
              <mxPoint x="450" y="1460" />
              <mxPoint x="450" y="2059" />
            </Array>
          </mxGeometry>
        </mxCell>
        <mxCell id="WdmZOjRlPLhk_2zMzAdh-124" value="Room" style="swimlane;fontStyle=0;childLayout=stackLayout;horizontal=1;startSize=26;fillColor=none;horizontalStack=0;resizeParent=1;resizeParentMax=0;resizeLast=0;collapsible=1;marginBottom=0;whiteSpace=wrap;html=1;" parent="1" vertex="1">
          <mxGeometry x="530" y="1268" width="240" height="130" as="geometry" />
        </mxCell>
        <mxCell id="WdmZOjRlPLhk_2zMzAdh-125" value="roomID [PK]" style="text;strokeColor=none;fillColor=none;align=left;verticalAlign=top;spacingLeft=4;spacingRight=4;overflow=hidden;rotatable=0;points=[[0,0.5],[1,0.5]];portConstraint=eastwest;whiteSpace=wrap;html=1;" parent="WdmZOjRlPLhk_2zMzAdh-124" vertex="1">
          <mxGeometry y="26" width="240" height="26" as="geometry" />
        </mxCell>
        <mxCell id="WdmZOjRlPLhk_2zMzAdh-126" value="roomName" style="text;strokeColor=none;fillColor=none;align=left;verticalAlign=top;spacingLeft=4;spacingRight=4;overflow=hidden;rotatable=0;points=[[0,0.5],[1,0.5]];portConstraint=eastwest;whiteSpace=wrap;html=1;" parent="WdmZOjRlPLhk_2zMzAdh-124" vertex="1">
          <mxGeometry y="52" width="240" height="26" as="geometry" />
        </mxCell>
        <mxCell id="WdmZOjRlPLhk_2zMzAdh-127" value="roomStatus [FK]" style="text;strokeColor=none;fillColor=none;align=left;verticalAlign=top;spacingLeft=4;spacingRight=4;overflow=hidden;rotatable=0;points=[[0,0.5],[1,0.5]];portConstraint=eastwest;whiteSpace=wrap;html=1;" parent="WdmZOjRlPLhk_2zMzAdh-124" vertex="1">
          <mxGeometry y="78" width="240" height="26" as="geometry" />
        </mxCell>
        <mxCell id="WdmZOjRlPLhk_2zMzAdh-128" value="department [FK]" style="text;strokeColor=none;fillColor=none;align=left;verticalAlign=top;spacingLeft=4;spacingRight=4;overflow=hidden;rotatable=0;points=[[0,0.5],[1,0.5]];portConstraint=eastwest;whiteSpace=wrap;html=1;" parent="WdmZOjRlPLhk_2zMzAdh-124" vertex="1">
          <mxGeometry y="104" width="240" height="26" as="geometry" />
        </mxCell>
        <mxCell id="WdmZOjRlPLhk_2zMzAdh-137" value="Insurance Agency" style="swimlane;fontStyle=0;childLayout=stackLayout;horizontal=1;startSize=26;fillColor=none;horizontalStack=0;resizeParent=1;resizeParentMax=0;resizeLast=0;collapsible=1;marginBottom=0;whiteSpace=wrap;html=1;" parent="1" vertex="1">
          <mxGeometry x="-640" y="1944" width="140" height="78" as="geometry" />
        </mxCell>
        <mxCell id="3rsIc_qw5QkhjrmrZdHb-2" value="agencyID [PK]" style="text;strokeColor=none;fillColor=none;align=left;verticalAlign=top;spacingLeft=4;spacingRight=4;overflow=hidden;rotatable=0;points=[[0,0.5],[1,0.5]];portConstraint=eastwest;whiteSpace=wrap;html=1;" parent="WdmZOjRlPLhk_2zMzAdh-137" vertex="1">
          <mxGeometry y="26" width="140" height="26" as="geometry" />
        </mxCell>
        <mxCell id="3rsIc_qw5QkhjrmrZdHb-3" value="agencyName" style="text;strokeColor=none;fillColor=none;align=left;verticalAlign=top;spacingLeft=4;spacingRight=4;overflow=hidden;rotatable=0;points=[[0,0.5],[1,0.5]];portConstraint=eastwest;whiteSpace=wrap;html=1;" parent="WdmZOjRlPLhk_2zMzAdh-137" vertex="1">
          <mxGeometry y="52" width="140" height="26" as="geometry" />
        </mxCell>
        <mxCell id="WdmZOjRlPLhk_2zMzAdh-140" value="Insurance Plan" style="swimlane;fontStyle=0;childLayout=stackLayout;horizontal=1;startSize=26;fillColor=none;horizontalStack=0;resizeParent=1;resizeParentMax=0;resizeLast=0;collapsible=1;marginBottom=0;whiteSpace=wrap;html=1;" parent="1" vertex="1">
          <mxGeometry x="-640" y="1655" width="200" height="180" as="geometry" />
        </mxCell>
        <mxCell id="WdmZOjRlPLhk_2zMzAdh-141" value="planID [PK]" style="text;strokeColor=none;fillColor=none;align=left;verticalAlign=top;spacingLeft=4;spacingRight=4;overflow=hidden;rotatable=0;points=[[0,0.5],[1,0.5]];portConstraint=eastwest;whiteSpace=wrap;html=1;" parent="WdmZOjRlPLhk_2zMzAdh-140" vertex="1">
          <mxGeometry y="26" width="200" height="24" as="geometry" />
        </mxCell>
        <mxCell id="WdmZOjRlPLhk_2zMzAdh-142" value="title" style="text;strokeColor=none;fillColor=none;align=left;verticalAlign=top;spacingLeft=4;spacingRight=4;overflow=hidden;rotatable=0;points=[[0,0.5],[1,0.5]];portConstraint=eastwest;whiteSpace=wrap;html=1;" parent="WdmZOjRlPLhk_2zMzAdh-140" vertex="1">
          <mxGeometry y="50" width="200" height="26" as="geometry" />
        </mxCell>
        <mxCell id="WdmZOjRlPLhk_2zMzAdh-143" value="planDescription" style="text;strokeColor=none;fillColor=none;align=left;verticalAlign=top;spacingLeft=4;spacingRight=4;overflow=hidden;rotatable=0;points=[[0,0.5],[1,0.5]];portConstraint=eastwest;whiteSpace=wrap;html=1;" parent="WdmZOjRlPLhk_2zMzAdh-140" vertex="1">
          <mxGeometry y="76" width="200" height="26" as="geometry" />
        </mxCell>
        <mxCell id="WdmZOjRlPLhk_2zMzAdh-144" value="deductible" style="text;strokeColor=none;fillColor=none;align=left;verticalAlign=top;spacingLeft=4;spacingRight=4;overflow=hidden;rotatable=0;points=[[0,0.5],[1,0.5]];portConstraint=eastwest;whiteSpace=wrap;html=1;" parent="WdmZOjRlPLhk_2zMzAdh-140" vertex="1">
          <mxGeometry y="102" width="200" height="26" as="geometry" />
        </mxCell>
        <mxCell id="WdmZOjRlPLhk_2zMzAdh-145" value="postDeductibleSplit" style="text;strokeColor=none;fillColor=none;align=left;verticalAlign=top;spacingLeft=4;spacingRight=4;overflow=hidden;rotatable=0;points=[[0,0.5],[1,0.5]];portConstraint=eastwest;whiteSpace=wrap;html=1;" parent="WdmZOjRlPLhk_2zMzAdh-140" vertex="1">
          <mxGeometry y="128" width="200" height="26" as="geometry" />
        </mxCell>
        <mxCell id="WdmZOjRlPLhk_2zMzAdh-146" value="insuranceAgency" style="text;strokeColor=none;fillColor=none;align=left;verticalAlign=top;spacingLeft=4;spacingRight=4;overflow=hidden;rotatable=0;points=[[0,0.5],[1,0.5]];portConstraint=eastwest;whiteSpace=wrap;html=1;" parent="WdmZOjRlPLhk_2zMzAdh-140" vertex="1">
          <mxGeometry y="154" width="200" height="26" as="geometry" />
        </mxCell>
        <mxCell id="WdmZOjRlPLhk_2zMzAdh-240" style="edgeStyle=orthogonalEdgeStyle;rounded=0;orthogonalLoop=1;jettySize=auto;html=1;startArrow=ERzeroToMany;startFill=0;endArrow=ERmandOne;endFill=0;endSize=15;startSize=15;jumpStyle=arc;jumpSize=10;" parent="1" source="WdmZOjRlPLhk_2zMzAdh-162" target="WdmZOjRlPLhk_2zMzAdh-100" edge="1">
          <mxGeometry relative="1" as="geometry">
            <Array as="points">
              <mxPoint x="380" y="1990" />
            </Array>
          </mxGeometry>
        </mxCell>
        <mxCell id="WdmZOjRlPLhk_2zMzAdh-162" value="Transaction" style="swimlane;fontStyle=0;childLayout=stackLayout;horizontal=1;startSize=26;fillColor=none;horizontalStack=0;resizeParent=1;resizeParentMax=0;resizeLast=0;collapsible=1;marginBottom=0;whiteSpace=wrap;html=1;" parent="1" vertex="1">
          <mxGeometry x="-300" y="1760" width="240" height="312" as="geometry" />
        </mxCell>
        <mxCell id="WdmZOjRlPLhk_2zMzAdh-163" value="transactionID [PK]" style="text;strokeColor=none;fillColor=none;align=left;verticalAlign=top;spacingLeft=4;spacingRight=4;overflow=hidden;rotatable=0;points=[[0,0.5],[1,0.5]];portConstraint=eastwest;whiteSpace=wrap;html=1;" parent="WdmZOjRlPLhk_2zMzAdh-162" vertex="1">
          <mxGeometry y="26" width="240" height="26" as="geometry" />
        </mxCell>
        <mxCell id="3rsIc_qw5QkhjrmrZdHb-6" value="transactionDate" style="text;strokeColor=none;fillColor=none;align=left;verticalAlign=top;spacingLeft=4;spacingRight=4;overflow=hidden;rotatable=0;points=[[0,0.5],[1,0.5]];portConstraint=eastwest;whiteSpace=wrap;html=1;" parent="WdmZOjRlPLhk_2zMzAdh-162" vertex="1">
          <mxGeometry y="52" width="240" height="26" as="geometry" />
        </mxCell>
        <mxCell id="3rsIc_qw5QkhjrmrZdHb-5" value="patientInsurancePlanID [FK]" style="text;strokeColor=none;fillColor=none;align=left;verticalAlign=top;spacingLeft=4;spacingRight=4;overflow=hidden;rotatable=0;points=[[0,0.5],[1,0.5]];portConstraint=eastwest;whiteSpace=wrap;html=1;" parent="WdmZOjRlPLhk_2zMzAdh-162" vertex="1">
          <mxGeometry y="78" width="240" height="26" as="geometry" />
        </mxCell>
        <mxCell id="3rsIc_qw5QkhjrmrZdHb-7" value="isSourceInsurance [FK]" style="text;strokeColor=none;fillColor=none;align=left;verticalAlign=top;spacingLeft=4;spacingRight=4;overflow=hidden;rotatable=0;points=[[0,0.5],[1,0.5]];portConstraint=eastwest;whiteSpace=wrap;html=1;" parent="WdmZOjRlPLhk_2zMzAdh-162" vertex="1">
          <mxGeometry y="104" width="240" height="26" as="geometry" />
        </mxCell>
        <mxCell id="WdmZOjRlPLhk_2zMzAdh-169" value="paymentPlanID [FK]" style="text;strokeColor=none;fillColor=none;align=left;verticalAlign=top;spacingLeft=4;spacingRight=4;overflow=hidden;rotatable=0;points=[[0,0.5],[1,0.5]];portConstraint=eastwest;whiteSpace=wrap;html=1;" parent="WdmZOjRlPLhk_2zMzAdh-162" vertex="1">
          <mxGeometry y="130" width="240" height="26" as="geometry" />
        </mxCell>
        <mxCell id="WdmZOjRlPLhk_2zMzAdh-165" value="appointmentID [FK]" style="text;strokeColor=none;fillColor=none;align=left;verticalAlign=top;spacingLeft=4;spacingRight=4;overflow=hidden;rotatable=0;points=[[0,0.5],[1,0.5]];portConstraint=eastwest;whiteSpace=wrap;html=1;" parent="WdmZOjRlPLhk_2zMzAdh-162" vertex="1">
          <mxGeometry y="156" width="240" height="26" as="geometry" />
        </mxCell>
        <mxCell id="WdmZOjRlPLhk_2zMzAdh-166" value="patientID [FK]" style="text;strokeColor=none;fillColor=none;align=left;verticalAlign=top;spacingLeft=4;spacingRight=4;overflow=hidden;rotatable=0;points=[[0,0.5],[1,0.5]];portConstraint=eastwest;whiteSpace=wrap;html=1;" parent="WdmZOjRlPLhk_2zMzAdh-162" vertex="1">
          <mxGeometry y="182" width="240" height="26" as="geometry" />
        </mxCell>
        <mxCell id="WdmZOjRlPLhk_2zMzAdh-167" value="total" style="text;strokeColor=none;fillColor=none;align=left;verticalAlign=top;spacingLeft=4;spacingRight=4;overflow=hidden;rotatable=0;points=[[0,0.5],[1,0.5]];portConstraint=eastwest;whiteSpace=wrap;html=1;" parent="WdmZOjRlPLhk_2zMzAdh-162" vertex="1">
          <mxGeometry y="208" width="240" height="26" as="geometry" />
        </mxCell>
        <mxCell id="WdmZOjRlPLhk_2zMzAdh-168" value="remainingBalance" style="text;strokeColor=none;fillColor=none;align=left;verticalAlign=top;spacingLeft=4;spacingRight=4;overflow=hidden;rotatable=0;points=[[0,0.5],[1,0.5]];portConstraint=eastwest;whiteSpace=wrap;html=1;" parent="WdmZOjRlPLhk_2zMzAdh-162" vertex="1">
          <mxGeometry y="234" width="240" height="26" as="geometry" />
        </mxCell>
        <mxCell id="3rsIc_qw5QkhjrmrZdHb-8" value="transactionStatus" style="text;strokeColor=none;fillColor=none;align=left;verticalAlign=top;spacingLeft=4;spacingRight=4;overflow=hidden;rotatable=0;points=[[0,0.5],[1,0.5]];portConstraint=eastwest;whiteSpace=wrap;html=1;" parent="WdmZOjRlPLhk_2zMzAdh-162" vertex="1">
          <mxGeometry y="260" width="240" height="26" as="geometry" />
        </mxCell>
        <mxCell id="WdmZOjRlPLhk_2zMzAdh-171" value="inNetwork" style="text;strokeColor=none;fillColor=none;align=left;verticalAlign=top;spacingLeft=4;spacingRight=4;overflow=hidden;rotatable=0;points=[[0,0.5],[1,0.5]];portConstraint=eastwest;whiteSpace=wrap;html=1;" parent="WdmZOjRlPLhk_2zMzAdh-162" vertex="1">
          <mxGeometry y="286" width="240" height="26" as="geometry" />
        </mxCell>
        <mxCell id="WdmZOjRlPLhk_2zMzAdh-172" value="Payment Plan" style="swimlane;fontStyle=0;childLayout=stackLayout;horizontal=1;startSize=26;fillColor=none;horizontalStack=0;resizeParent=1;resizeParentMax=0;resizeLast=0;collapsible=1;marginBottom=0;whiteSpace=wrap;html=1;" parent="1" vertex="1">
          <mxGeometry x="-325" y="1220" width="190" height="182" as="geometry" />
        </mxCell>
        <mxCell id="3rsIc_qw5QkhjrmrZdHb-4" value="planID [PK]" style="text;strokeColor=none;fillColor=none;align=left;verticalAlign=top;spacingLeft=4;spacingRight=4;overflow=hidden;rotatable=0;points=[[0,0.5],[1,0.5]];portConstraint=eastwest;whiteSpace=wrap;html=1;" parent="WdmZOjRlPLhk_2zMzAdh-172" vertex="1">
          <mxGeometry y="26" width="190" height="26" as="geometry" />
        </mxCell>
        <mxCell id="WdmZOjRlPLhk_2zMzAdh-174" value="title" style="text;strokeColor=none;fillColor=none;align=left;verticalAlign=top;spacingLeft=4;spacingRight=4;overflow=hidden;rotatable=0;points=[[0,0.5],[1,0.5]];portConstraint=eastwest;whiteSpace=wrap;html=1;" parent="WdmZOjRlPLhk_2zMzAdh-172" vertex="1">
          <mxGeometry y="52" width="190" height="26" as="geometry" />
        </mxCell>
        <mxCell id="WdmZOjRlPLhk_2zMzAdh-175" value="paymentPeriodDays" style="text;strokeColor=none;fillColor=none;align=left;verticalAlign=top;spacingLeft=4;spacingRight=4;overflow=hidden;rotatable=0;points=[[0,0.5],[1,0.5]];portConstraint=eastwest;whiteSpace=wrap;html=1;" parent="WdmZOjRlPLhk_2zMzAdh-172" vertex="1">
          <mxGeometry y="78" width="190" height="26" as="geometry" />
        </mxCell>
        <mxCell id="WdmZOjRlPLhk_2zMzAdh-176" value="monthlyMinimum" style="text;strokeColor=none;fillColor=none;align=left;verticalAlign=top;spacingLeft=4;spacingRight=4;overflow=hidden;rotatable=0;points=[[0,0.5],[1,0.5]];portConstraint=eastwest;whiteSpace=wrap;html=1;" parent="WdmZOjRlPLhk_2zMzAdh-172" vertex="1">
          <mxGeometry y="104" width="190" height="26" as="geometry" />
        </mxCell>
        <mxCell id="WdmZOjRlPLhk_2zMzAdh-177" value="paidPrinciple" style="text;strokeColor=none;fillColor=none;align=left;verticalAlign=top;spacingLeft=4;spacingRight=4;overflow=hidden;rotatable=0;points=[[0,0.5],[1,0.5]];portConstraint=eastwest;whiteSpace=wrap;html=1;" parent="WdmZOjRlPLhk_2zMzAdh-172" vertex="1">
          <mxGeometry y="130" width="190" height="26" as="geometry" />
        </mxCell>
        <mxCell id="WdmZOjRlPLhk_2zMzAdh-178" value="monthlyInterest" style="text;strokeColor=none;fillColor=none;align=left;verticalAlign=top;spacingLeft=4;spacingRight=4;overflow=hidden;rotatable=0;points=[[0,0.5],[1,0.5]];portConstraint=eastwest;whiteSpace=wrap;html=1;" parent="WdmZOjRlPLhk_2zMzAdh-172" vertex="1">
          <mxGeometry y="156" width="190" height="26" as="geometry" />
        </mxCell>
        <mxCell id="WdmZOjRlPLhk_2zMzAdh-188" value="Claim" style="swimlane;fontStyle=0;childLayout=stackLayout;horizontal=1;startSize=26;fillColor=none;horizontalStack=0;resizeParent=1;resizeParentMax=0;resizeLast=0;collapsible=1;marginBottom=0;whiteSpace=wrap;html=1;" parent="1" vertex="1">
          <mxGeometry x="-30" y="1140" width="246" height="312" as="geometry" />
        </mxCell>
        <mxCell id="WdmZOjRlPLhk_2zMzAdh-189" value="claimID [PK]" style="text;strokeColor=none;fillColor=none;align=left;verticalAlign=top;spacingLeft=4;spacingRight=4;overflow=hidden;rotatable=0;points=[[0,0.5],[1,0.5]];portConstraint=eastwest;whiteSpace=wrap;html=1;" parent="WdmZOjRlPLhk_2zMzAdh-188" vertex="1">
          <mxGeometry y="26" width="246" height="26" as="geometry" />
        </mxCell>
        <mxCell id="WdmZOjRlPLhk_2zMzAdh-190" value="fileDate" style="text;strokeColor=none;fillColor=none;align=left;verticalAlign=top;spacingLeft=4;spacingRight=4;overflow=hidden;rotatable=0;points=[[0,0.5],[1,0.5]];portConstraint=eastwest;whiteSpace=wrap;html=1;" parent="WdmZOjRlPLhk_2zMzAdh-188" vertex="1">
          <mxGeometry y="52" width="246" height="26" as="geometry" />
        </mxCell>
        <mxCell id="WdmZOjRlPLhk_2zMzAdh-191" value="membershipID [FK]" style="text;strokeColor=none;fillColor=none;align=left;verticalAlign=top;spacingLeft=4;spacingRight=4;overflow=hidden;rotatable=0;points=[[0,0.5],[1,0.5]];portConstraint=eastwest;whiteSpace=wrap;html=1;" parent="WdmZOjRlPLhk_2zMzAdh-188" vertex="1">
          <mxGeometry y="78" width="246" height="26" as="geometry" />
        </mxCell>
        <mxCell id="WdmZOjRlPLhk_2zMzAdh-192" value="patientID [FK]" style="text;strokeColor=none;fillColor=none;align=left;verticalAlign=top;spacingLeft=4;spacingRight=4;overflow=hidden;rotatable=0;points=[[0,0.5],[1,0.5]];portConstraint=eastwest;whiteSpace=wrap;html=1;" parent="WdmZOjRlPLhk_2zMzAdh-188" vertex="1">
          <mxGeometry y="104" width="246" height="26" as="geometry" />
        </mxCell>
        <mxCell id="WdmZOjRlPLhk_2zMzAdh-193" value="appointmentID [FK]" style="text;strokeColor=none;fillColor=none;align=left;verticalAlign=top;spacingLeft=4;spacingRight=4;overflow=hidden;rotatable=0;points=[[0,0.5],[1,0.5]];portConstraint=eastwest;whiteSpace=wrap;html=1;" parent="WdmZOjRlPLhk_2zMzAdh-188" vertex="1">
          <mxGeometry y="130" width="246" height="26" as="geometry" />
        </mxCell>
        <mxCell id="WdmZOjRlPLhk_2zMzAdh-194" value="paymentPlanID [FK]" style="text;strokeColor=none;fillColor=none;align=left;verticalAlign=top;spacingLeft=4;spacingRight=4;overflow=hidden;rotatable=0;points=[[0,0.5],[1,0.5]];portConstraint=eastwest;whiteSpace=wrap;html=1;" parent="WdmZOjRlPLhk_2zMzAdh-188" vertex="1">
          <mxGeometry y="156" width="246" height="26" as="geometry" />
        </mxCell>
        <mxCell id="WdmZOjRlPLhk_2zMzAdh-195" value="paidDeductible" style="text;strokeColor=none;fillColor=none;align=left;verticalAlign=top;spacingLeft=4;spacingRight=4;overflow=hidden;rotatable=0;points=[[0,0.5],[1,0.5]];portConstraint=eastwest;whiteSpace=wrap;html=1;" parent="WdmZOjRlPLhk_2zMzAdh-188" vertex="1">
          <mxGeometry y="182" width="246" height="26" as="geometry" />
        </mxCell>
        <mxCell id="WdmZOjRlPLhk_2zMzAdh-196" value="patientCopay" style="text;strokeColor=none;fillColor=none;align=left;verticalAlign=top;spacingLeft=4;spacingRight=4;overflow=hidden;rotatable=0;points=[[0,0.5],[1,0.5]];portConstraint=eastwest;whiteSpace=wrap;html=1;" parent="WdmZOjRlPLhk_2zMzAdh-188" vertex="1">
          <mxGeometry y="208" width="246" height="26" as="geometry" />
        </mxCell>
        <mxCell id="WdmZOjRlPLhk_2zMzAdh-197" value="insurancePay" style="text;strokeColor=none;fillColor=none;align=left;verticalAlign=top;spacingLeft=4;spacingRight=4;overflow=hidden;rotatable=0;points=[[0,0.5],[1,0.5]];portConstraint=eastwest;whiteSpace=wrap;html=1;" parent="WdmZOjRlPLhk_2zMzAdh-188" vertex="1">
          <mxGeometry y="234" width="246" height="26" as="geometry" />
        </mxCell>
        <mxCell id="WdmZOjRlPLhk_2zMzAdh-198" value="claimStatus [FK]" style="text;strokeColor=none;fillColor=none;align=left;verticalAlign=top;spacingLeft=4;spacingRight=4;overflow=hidden;rotatable=0;points=[[0,0.5],[1,0.5]];portConstraint=eastwest;whiteSpace=wrap;html=1;" parent="WdmZOjRlPLhk_2zMzAdh-188" vertex="1">
          <mxGeometry y="260" width="246" height="26" as="geometry" />
        </mxCell>
        <mxCell id="WdmZOjRlPLhk_2zMzAdh-225" value="adjustments" style="text;strokeColor=none;fillColor=none;align=left;verticalAlign=top;spacingLeft=4;spacingRight=4;overflow=hidden;rotatable=0;points=[[0,0.5],[1,0.5]];portConstraint=eastwest;whiteSpace=wrap;html=1;" parent="WdmZOjRlPLhk_2zMzAdh-188" vertex="1">
          <mxGeometry y="286" width="246" height="26" as="geometry" />
        </mxCell>
        <mxCell id="WdmZOjRlPLhk_2zMzAdh-212" value="Procedure" style="swimlane;fontStyle=0;childLayout=stackLayout;horizontal=1;startSize=26;fillColor=none;horizontalStack=0;resizeParent=1;resizeParentMax=0;resizeLast=0;collapsible=1;marginBottom=0;whiteSpace=wrap;html=1;" parent="1" vertex="1">
          <mxGeometry x="735" y="1450" width="310" height="156" as="geometry" />
        </mxCell>
        <mxCell id="WdmZOjRlPLhk_2zMzAdh-213" value="procedureID [PK]" style="text;strokeColor=none;fillColor=none;align=left;verticalAlign=top;spacingLeft=4;spacingRight=4;overflow=hidden;rotatable=0;points=[[0,0.5],[1,0.5]];portConstraint=eastwest;whiteSpace=wrap;html=1;" parent="WdmZOjRlPLhk_2zMzAdh-212" vertex="1">
          <mxGeometry y="26" width="310" height="26" as="geometry" />
        </mxCell>
        <mxCell id="WdmZOjRlPLhk_2zMzAdh-214" value="procedureDescription" style="text;strokeColor=none;fillColor=none;align=left;verticalAlign=top;spacingLeft=4;spacingRight=4;overflow=hidden;rotatable=0;points=[[0,0.5],[1,0.5]];portConstraint=eastwest;whiteSpace=wrap;html=1;" parent="WdmZOjRlPLhk_2zMzAdh-212" vertex="1">
          <mxGeometry y="52" width="310" height="26" as="geometry" />
        </mxCell>
        <mxCell id="WdmZOjRlPLhk_2zMzAdh-215" value="code" style="text;strokeColor=none;fillColor=none;align=left;verticalAlign=top;spacingLeft=4;spacingRight=4;overflow=hidden;rotatable=0;points=[[0,0.5],[1,0.5]];portConstraint=eastwest;whiteSpace=wrap;html=1;" parent="WdmZOjRlPLhk_2zMzAdh-212" vertex="1">
          <mxGeometry y="78" width="310" height="26" as="geometry" />
        </mxCell>
        <mxCell id="WdmZOjRlPLhk_2zMzAdh-216" value="fee" style="text;strokeColor=none;fillColor=none;align=left;verticalAlign=top;spacingLeft=4;spacingRight=4;overflow=hidden;rotatable=0;points=[[0,0.5],[1,0.5]];portConstraint=eastwest;whiteSpace=wrap;html=1;" parent="WdmZOjRlPLhk_2zMzAdh-212" vertex="1">
          <mxGeometry y="104" width="310" height="26" as="geometry" />
        </mxCell>
        <mxCell id="WdmZOjRlPLhk_2zMzAdh-219" value="department [FK]" style="text;strokeColor=none;fillColor=none;align=left;verticalAlign=top;spacingLeft=4;spacingRight=4;overflow=hidden;rotatable=0;points=[[0,0.5],[1,0.5]];portConstraint=eastwest;whiteSpace=wrap;html=1;" parent="WdmZOjRlPLhk_2zMzAdh-212" vertex="1">
          <mxGeometry y="130" width="310" height="26" as="geometry" />
        </mxCell>
        <mxCell id="WdmZOjRlPLhk_2zMzAdh-224" style="rounded=0;orthogonalLoop=1;jettySize=auto;html=1;endArrow=ERmandOne;endFill=0;startArrow=ERmandOne;startFill=0;edgeStyle=entityRelationEdgeStyle;endSize=15;startSize=15;jumpStyle=arc;jumpSize=10;" parent="1" source="WdmZOjRlPLhk_2zMzAdh-194" target="WdmZOjRlPLhk_2zMzAdh-172" edge="1">
          <mxGeometry relative="1" as="geometry" />
        </mxCell>
        <mxCell id="WdmZOjRlPLhk_2zMzAdh-226" style="edgeStyle=orthogonalEdgeStyle;rounded=0;orthogonalLoop=1;jettySize=auto;html=1;startArrow=ERmandOne;startFill=0;endArrow=ERmandOne;endFill=0;endSize=15;startSize=15;jumpStyle=arc;jumpSize=10;" parent="1" source="WdmZOjRlPLhk_2zMzAdh-193" target="WdmZOjRlPLhk_2zMzAdh-100" edge="1">
          <mxGeometry relative="1" as="geometry">
            <Array as="points">
              <mxPoint x="230" y="1294" />
              <mxPoint x="230" y="1294" />
            </Array>
          </mxGeometry>
        </mxCell>
        <mxCell id="WdmZOjRlPLhk_2zMzAdh-228" style="edgeStyle=orthogonalEdgeStyle;rounded=0;orthogonalLoop=1;jettySize=auto;html=1;startArrow=ERzeroToMany;startFill=0;endArrow=ERmandOne;endFill=0;endSize=15;startSize=15;jumpStyle=arc;jumpSize=10;" parent="1" source="WdmZOjRlPLhk_2zMzAdh-188" target="WdmZOjRlPLhk_2zMzAdh-49" edge="1">
          <mxGeometry relative="1" as="geometry">
            <Array as="points" />
          </mxGeometry>
        </mxCell>
        <mxCell id="WdmZOjRlPLhk_2zMzAdh-232" style="edgeStyle=orthogonalEdgeStyle;rounded=0;orthogonalLoop=1;jettySize=auto;html=1;endArrow=ERoneToMany;endFill=0;startArrow=ERmandOne;startFill=0;endSize=15;startSize=15;jumpStyle=arc;jumpSize=10;" parent="1" source="WdmZOjRlPLhk_2zMzAdh-116" target="WdmZOjRlPLhk_2zMzAdh-212" edge="1">
          <mxGeometry relative="1" as="geometry">
            <mxPoint x="521" y="1652" as="sourcePoint" />
            <mxPoint x="435" y="1733" as="targetPoint" />
          </mxGeometry>
        </mxCell>
        <mxCell id="WdmZOjRlPLhk_2zMzAdh-233" style="edgeStyle=orthogonalEdgeStyle;rounded=0;orthogonalLoop=1;jettySize=auto;html=1;startArrow=ERmandOne;startFill=0;endArrow=ERzeroToMany;endFill=0;endSize=15;startSize=15;jumpStyle=arc;jumpSize=10;" parent="1" source="WdmZOjRlPLhk_2zMzAdh-212" target="WdmZOjRlPLhk_2zMzAdh-68" edge="1">
          <mxGeometry relative="1" as="geometry">
            <mxPoint x="1030" y="1619" as="sourcePoint" />
            <Array as="points">
              <mxPoint x="1260" y="1490" />
            </Array>
          </mxGeometry>
        </mxCell>
        <mxCell id="WdmZOjRlPLhk_2zMzAdh-234" style="edgeStyle=orthogonalEdgeStyle;rounded=0;orthogonalLoop=1;jettySize=auto;html=1;startArrow=ERmandOne;startFill=0;endArrow=ERoneToMany;endFill=0;endSize=15;startSize=15;jumpStyle=arc;jumpSize=10;" parent="1" source="WdmZOjRlPLhk_2zMzAdh-212" target="WdmZOjRlPLhk_2zMzAdh-78" edge="1">
          <mxGeometry relative="1" as="geometry">
            <mxPoint x="1030" y="1593" as="sourcePoint" />
            <mxPoint x="1210" y="1767" as="targetPoint" />
            <Array as="points">
              <mxPoint x="1090" y="1550" />
            </Array>
          </mxGeometry>
        </mxCell>
        <mxCell id="WdmZOjRlPLhk_2zMzAdh-235" style="edgeStyle=orthogonalEdgeStyle;rounded=0;orthogonalLoop=1;jettySize=auto;html=1;startArrow=ERzeroToMany;startFill=0;endArrow=ERone;endFill=0;endSize=15;startSize=15;jumpStyle=arc;jumpSize=10;" parent="1" source="WdmZOjRlPLhk_2zMzAdh-111" target="WdmZOjRlPLhk_2zMzAdh-88" edge="1">
          <mxGeometry relative="1" as="geometry">
            <Array as="points">
              <mxPoint x="680" y="1798" />
              <mxPoint x="680" y="1798" />
            </Array>
          </mxGeometry>
        </mxCell>
        <mxCell id="WdmZOjRlPLhk_2zMzAdh-236" style="edgeStyle=orthogonalEdgeStyle;rounded=0;orthogonalLoop=1;jettySize=auto;html=1;startArrow=ERoneToMany;startFill=0;endArrow=ERmandOne;endFill=0;endSize=15;startSize=15;jumpStyle=arc;jumpSize=10;" parent="1" source="WdmZOjRlPLhk_2zMzAdh-78" target="WdmZOjRlPLhk_2zMzAdh-88" edge="1">
          <mxGeometry relative="1" as="geometry">
            <Array as="points">
              <mxPoint x="1060" y="1782" />
              <mxPoint x="1060" y="1782" />
            </Array>
          </mxGeometry>
        </mxCell>
        <mxCell id="WdmZOjRlPLhk_2zMzAdh-241" style="edgeStyle=orthogonalEdgeStyle;rounded=0;orthogonalLoop=1;jettySize=auto;html=1;endArrow=ERone;endFill=0;startArrow=ERzeroToMany;startFill=0;endSize=15;startSize=15;jumpStyle=arc;jumpSize=10;" parent="1" source="WdmZOjRlPLhk_2zMzAdh-162" target="WdmZOjRlPLhk_2zMzAdh-172" edge="1">
          <mxGeometry relative="1" as="geometry">
            <Array as="points">
              <mxPoint x="-280" y="1550" />
              <mxPoint x="-280" y="1550" />
            </Array>
          </mxGeometry>
        </mxCell>
        <mxCell id="WdmZOjRlPLhk_2zMzAdh-242" style="edgeStyle=orthogonalEdgeStyle;rounded=0;orthogonalLoop=1;jettySize=auto;html=1;startArrow=ERmany;startFill=0;endArrow=ERmandOne;endFill=0;endSize=15;startSize=15;jumpStyle=arc;jumpSize=10;" parent="1" source="WdmZOjRlPLhk_2zMzAdh-107" target="WdmZOjRlPLhk_2zMzAdh-124" edge="1">
          <mxGeometry relative="1" as="geometry" />
        </mxCell>
        <mxCell id="WdmZOjRlPLhk_2zMzAdh-248" style="edgeStyle=orthogonalEdgeStyle;rounded=0;orthogonalLoop=1;jettySize=auto;html=1;startArrow=ERzeroToMany;startFill=0;endArrow=ERmandOne;endFill=0;endSize=15;startSize=15;jumpStyle=arc;jumpSize=10;" parent="1" source="WdmZOjRlPLhk_2zMzAdh-162" target="WdmZOjRlPLhk_2zMzAdh-140" edge="1">
          <mxGeometry relative="1" as="geometry">
            <Array as="points">
              <mxPoint x="-400" y="1825" />
              <mxPoint x="-400" y="1825" />
            </Array>
            <mxPoint x="-310" y="1825.0000000000002" as="sourcePoint" />
          </mxGeometry>
        </mxCell>
        <mxCell id="Tyf-H2eqfvU3GgdiiMwc-8" style="edgeStyle=orthogonalEdgeStyle;rounded=0;orthogonalLoop=1;jettySize=auto;html=1;startArrow=ERmandOne;startFill=0;endSize=15;startSize=15;endArrow=ERzeroToMany;endFill=0;strokeColor=#66B2FF;jumpStyle=arc;jumpSize=10;" parent="1" source="3rsIc_qw5QkhjrmrZdHb-17" target="WdmZOjRlPLhk_2zMzAdh-111" edge="1">
          <mxGeometry relative="1" as="geometry">
            <Array as="points">
              <mxPoint x="400" y="1876" />
            </Array>
          </mxGeometry>
        </mxCell>
        <mxCell id="3rsIc_qw5QkhjrmrZdHb-17" value="Status" style="swimlane;fontStyle=0;childLayout=stackLayout;horizontal=1;startSize=26;fillColor=none;horizontalStack=0;resizeParent=1;resizeParentMax=0;resizeLast=0;collapsible=1;marginBottom=0;whiteSpace=wrap;html=1;" parent="1" vertex="1">
          <mxGeometry x="280" y="2020" width="140" height="78" as="geometry" />
        </mxCell>
        <mxCell id="3rsIc_qw5QkhjrmrZdHb-18" value="statusID [PK]" style="text;strokeColor=none;fillColor=none;align=left;verticalAlign=top;spacingLeft=4;spacingRight=4;overflow=hidden;rotatable=0;points=[[0,0.5],[1,0.5]];portConstraint=eastwest;whiteSpace=wrap;html=1;" parent="3rsIc_qw5QkhjrmrZdHb-17" vertex="1">
          <mxGeometry y="26" width="140" height="26" as="geometry" />
        </mxCell>
        <mxCell id="3rsIc_qw5QkhjrmrZdHb-19" value="label" style="text;strokeColor=none;fillColor=none;align=left;verticalAlign=top;spacingLeft=4;spacingRight=4;overflow=hidden;rotatable=0;points=[[0,0.5],[1,0.5]];portConstraint=eastwest;whiteSpace=wrap;html=1;" parent="3rsIc_qw5QkhjrmrZdHb-17" vertex="1">
          <mxGeometry y="52" width="140" height="26" as="geometry" />
        </mxCell>
        <mxCell id="3rsIc_qw5QkhjrmrZdHb-20" style="edgeStyle=orthogonalEdgeStyle;rounded=0;orthogonalLoop=1;jettySize=auto;html=1;endArrow=ERmandOne;endFill=0;startArrow=ERoneToMany;startFill=0;entryX=0.5;entryY=0;entryDx=0;entryDy=0;endSize=15;startSize=15;jumpStyle=arc;jumpSize=10;" parent="1" source="WdmZOjRlPLhk_2zMzAdh-49" target="IWIvYSxlYLz9XEMbi_1u-2" edge="1">
          <mxGeometry relative="1" as="geometry">
            <mxPoint x="290" y="1760" as="targetPoint" />
            <Array as="points">
              <mxPoint x="286" y="1620" />
            </Array>
          </mxGeometry>
        </mxCell>
        <mxCell id="3rsIc_qw5QkhjrmrZdHb-21" style="edgeStyle=orthogonalEdgeStyle;rounded=0;orthogonalLoop=1;jettySize=auto;html=1;startArrow=ERzeroToMany;startFill=0;endArrow=ERmandOne;endFill=0;endSize=15;startSize=15;jumpStyle=arc;jumpSize=10;" parent="1" source="WdmZOjRlPLhk_2zMzAdh-57" target="3rsIc_qw5QkhjrmrZdHb-17" edge="1">
          <mxGeometry relative="1" as="geometry">
            <Array as="points">
              <mxPoint x="140" y="2030" />
            </Array>
          </mxGeometry>
        </mxCell>
        <mxCell id="IWIvYSxlYLz9XEMbi_1u-2" value="Address" style="swimlane;fontStyle=0;childLayout=stackLayout;horizontal=1;startSize=26;fillColor=none;horizontalStack=0;resizeParent=1;resizeParentMax=0;resizeLast=0;collapsible=1;marginBottom=0;whiteSpace=wrap;html=1;" parent="1" vertex="1">
          <mxGeometry x="216" y="1698" width="140" height="260" as="geometry" />
        </mxCell>
        <mxCell id="IWIvYSxlYLz9XEMbi_1u-3" value="addressID [PK]" style="text;strokeColor=none;fillColor=none;align=left;verticalAlign=top;spacingLeft=4;spacingRight=4;overflow=hidden;rotatable=0;points=[[0,0.5],[1,0.5]];portConstraint=eastwest;whiteSpace=wrap;html=1;" parent="IWIvYSxlYLz9XEMbi_1u-2" vertex="1">
          <mxGeometry y="26" width="140" height="26" as="geometry" />
        </mxCell>
        <mxCell id="tYauZJ5otqG5vfTE3sik-31" value="&lt;font color=&quot;#3399ff&quot;&gt;label&lt;/font&gt;" style="text;strokeColor=none;fillColor=none;align=left;verticalAlign=top;spacingLeft=4;spacingRight=4;overflow=hidden;rotatable=0;points=[[0,0.5],[1,0.5]];portConstraint=eastwest;whiteSpace=wrap;html=1;" parent="IWIvYSxlYLz9XEMbi_1u-2" vertex="1">
          <mxGeometry y="52" width="140" height="26" as="geometry" />
        </mxCell>
        <mxCell id="tYauZJ5otqG5vfTE3sik-32" value="&lt;font color=&quot;#3399ff&quot;&gt;phoneNumber&lt;/font&gt;" style="text;strokeColor=none;fillColor=none;align=left;verticalAlign=top;spacingLeft=4;spacingRight=4;overflow=hidden;rotatable=0;points=[[0,0.5],[1,0.5]];portConstraint=eastwest;whiteSpace=wrap;html=1;" parent="IWIvYSxlYLz9XEMbi_1u-2" vertex="1">
          <mxGeometry y="78" width="140" height="26" as="geometry" />
        </mxCell>
        <mxCell id="IWIvYSxlYLz9XEMbi_1u-4" value="line1" style="text;strokeColor=none;fillColor=none;align=left;verticalAlign=top;spacingLeft=4;spacingRight=4;overflow=hidden;rotatable=0;points=[[0,0.5],[1,0.5]];portConstraint=eastwest;whiteSpace=wrap;html=1;" parent="IWIvYSxlYLz9XEMbi_1u-2" vertex="1">
          <mxGeometry y="104" width="140" height="26" as="geometry" />
        </mxCell>
        <mxCell id="IWIvYSxlYLz9XEMbi_1u-5" value="line2" style="text;strokeColor=none;fillColor=none;align=left;verticalAlign=top;spacingLeft=4;spacingRight=4;overflow=hidden;rotatable=0;points=[[0,0.5],[1,0.5]];portConstraint=eastwest;whiteSpace=wrap;html=1;" parent="IWIvYSxlYLz9XEMbi_1u-2" vertex="1">
          <mxGeometry y="130" width="140" height="26" as="geometry" />
        </mxCell>
        <mxCell id="3rsIc_qw5QkhjrmrZdHb-13" value="city" style="text;strokeColor=none;fillColor=none;align=left;verticalAlign=top;spacingLeft=4;spacingRight=4;overflow=hidden;rotatable=0;points=[[0,0.5],[1,0.5]];portConstraint=eastwest;whiteSpace=wrap;html=1;" parent="IWIvYSxlYLz9XEMbi_1u-2" vertex="1">
          <mxGeometry y="156" width="140" height="26" as="geometry" />
        </mxCell>
        <mxCell id="3rsIc_qw5QkhjrmrZdHb-14" value="region" style="text;strokeColor=none;fillColor=none;align=left;verticalAlign=top;spacingLeft=4;spacingRight=4;overflow=hidden;rotatable=0;points=[[0,0.5],[1,0.5]];portConstraint=eastwest;whiteSpace=wrap;html=1;shadow=0;" parent="IWIvYSxlYLz9XEMbi_1u-2" vertex="1">
          <mxGeometry y="182" width="140" height="26" as="geometry" />
        </mxCell>
        <mxCell id="3rsIc_qw5QkhjrmrZdHb-15" value="postalCode" style="text;strokeColor=none;fillColor=none;align=left;verticalAlign=top;spacingLeft=4;spacingRight=4;overflow=hidden;rotatable=0;points=[[0,0.5],[1,0.5]];portConstraint=eastwest;whiteSpace=wrap;html=1;shadow=0;" parent="IWIvYSxlYLz9XEMbi_1u-2" vertex="1">
          <mxGeometry y="208" width="140" height="26" as="geometry" />
        </mxCell>
        <mxCell id="3rsIc_qw5QkhjrmrZdHb-16" value="country" style="text;strokeColor=none;fillColor=none;align=left;verticalAlign=top;spacingLeft=4;spacingRight=4;overflow=hidden;rotatable=0;points=[[0,0.5],[1,0.5]];portConstraint=eastwest;whiteSpace=wrap;html=1;shadow=0;" parent="IWIvYSxlYLz9XEMbi_1u-2" vertex="1">
          <mxGeometry y="234" width="140" height="26" as="geometry" />
        </mxCell>
        <mxCell id="IWIvYSxlYLz9XEMbi_1u-7" value="Insurance Membership Join" style="swimlane;fontStyle=0;childLayout=stackLayout;horizontal=1;startSize=26;fillColor=none;horizontalStack=0;resizeParent=1;resizeParentMax=0;resizeLast=0;collapsible=1;marginBottom=0;whiteSpace=wrap;html=1;" parent="1" vertex="1">
          <mxGeometry x="-230" y="1650" width="160" height="78" as="geometry" />
        </mxCell>
        <mxCell id="IWIvYSxlYLz9XEMbi_1u-8" value="agencyID [PK]" style="text;strokeColor=none;fillColor=none;align=left;verticalAlign=top;spacingLeft=4;spacingRight=4;overflow=hidden;rotatable=0;points=[[0,0.5],[1,0.5]];portConstraint=eastwest;whiteSpace=wrap;html=1;" parent="IWIvYSxlYLz9XEMbi_1u-7" vertex="1">
          <mxGeometry y="26" width="160" height="26" as="geometry" />
        </mxCell>
        <mxCell id="IWIvYSxlYLz9XEMbi_1u-9" value="patientMembershipID" style="text;strokeColor=none;fillColor=none;align=left;verticalAlign=top;spacingLeft=4;spacingRight=4;overflow=hidden;rotatable=0;points=[[0,0.5],[1,0.5]];portConstraint=eastwest;whiteSpace=wrap;html=1;" parent="IWIvYSxlYLz9XEMbi_1u-7" vertex="1">
          <mxGeometry y="52" width="160" height="26" as="geometry" />
        </mxCell>
        <mxCell id="IWIvYSxlYLz9XEMbi_1u-10" style="edgeStyle=orthogonalEdgeStyle;rounded=0;orthogonalLoop=1;jettySize=auto;html=1;startArrow=ERmandOne;startFill=0;endArrow=ERmandOne;endFill=0;endSize=15;startSize=15;jumpStyle=arc;jumpSize=10;" parent="1" source="IWIvYSxlYLz9XEMbi_1u-7" target="WdmZOjRlPLhk_2zMzAdh-49" edge="1">
          <mxGeometry relative="1" as="geometry">
            <Array as="points">
              <mxPoint x="-20" y="1691" />
              <mxPoint x="-20" y="1691" />
            </Array>
          </mxGeometry>
        </mxCell>
        <mxCell id="NgOB-0QbWW0rU8fenpss-1" value="SupplyInventory" style="swimlane;fontStyle=0;childLayout=stackLayout;horizontal=1;startSize=26;fillColor=none;horizontalStack=0;resizeParent=1;resizeParentMax=0;resizeLast=0;collapsible=1;marginBottom=0;whiteSpace=wrap;html=1;strokeColor=#66B2FF;" parent="1" vertex="1">
          <mxGeometry x="1320" y="1850" width="200" height="182" as="geometry" />
        </mxCell>
        <mxCell id="NgOB-0QbWW0rU8fenpss-2" value="supplyID [PK]" style="text;strokeColor=none;fillColor=none;align=left;verticalAlign=top;spacingLeft=4;spacingRight=4;overflow=hidden;rotatable=0;points=[[0,0.5],[1,0.5]];portConstraint=eastwest;whiteSpace=wrap;html=1;" parent="NgOB-0QbWW0rU8fenpss-1" vertex="1">
          <mxGeometry y="26" width="200" height="26" as="geometry" />
        </mxCell>
        <mxCell id="NgOB-0QbWW0rU8fenpss-5" value="item" style="text;strokeColor=none;fillColor=none;align=left;verticalAlign=top;spacingLeft=4;spacingRight=4;overflow=hidden;rotatable=0;points=[[0,0.5],[1,0.5]];portConstraint=eastwest;whiteSpace=wrap;html=1;" parent="NgOB-0QbWW0rU8fenpss-1" vertex="1">
          <mxGeometry y="52" width="200" height="26" as="geometry" />
        </mxCell>
        <mxCell id="NgOB-0QbWW0rU8fenpss-6" value="description" style="text;strokeColor=none;fillColor=none;align=left;verticalAlign=top;spacingLeft=4;spacingRight=4;overflow=hidden;rotatable=0;points=[[0,0.5],[1,0.5]];portConstraint=eastwest;whiteSpace=wrap;html=1;" parent="NgOB-0QbWW0rU8fenpss-1" vertex="1">
          <mxGeometry y="78" width="200" height="26" as="geometry" />
        </mxCell>
        <mxCell id="NgOB-0QbWW0rU8fenpss-7" value="quantity" style="text;strokeColor=none;fillColor=none;align=left;verticalAlign=top;spacingLeft=4;spacingRight=4;overflow=hidden;rotatable=0;points=[[0,0.5],[1,0.5]];portConstraint=eastwest;whiteSpace=wrap;html=1;" parent="NgOB-0QbWW0rU8fenpss-1" vertex="1">
          <mxGeometry y="104" width="200" height="26" as="geometry" />
        </mxCell>
        <mxCell id="NgOB-0QbWW0rU8fenpss-8" value="quantityUnit" style="text;strokeColor=none;fillColor=none;align=left;verticalAlign=top;spacingLeft=4;spacingRight=4;overflow=hidden;rotatable=0;points=[[0,0.5],[1,0.5]];portConstraint=eastwest;whiteSpace=wrap;html=1;" parent="NgOB-0QbWW0rU8fenpss-1" vertex="1">
          <mxGeometry y="130" width="200" height="26" as="geometry" />
        </mxCell>
        <mxCell id="NgOB-0QbWW0rU8fenpss-9" value="unitPrice" style="text;strokeColor=none;fillColor=none;align=left;verticalAlign=top;spacingLeft=4;spacingRight=4;overflow=hidden;rotatable=0;points=[[0,0.5],[1,0.5]];portConstraint=eastwest;whiteSpace=wrap;html=1;" parent="NgOB-0QbWW0rU8fenpss-1" vertex="1">
          <mxGeometry y="156" width="200" height="26" as="geometry" />
        </mxCell>
        <mxCell id="NgOB-0QbWW0rU8fenpss-10" style="edgeStyle=orthogonalEdgeStyle;rounded=0;orthogonalLoop=1;jettySize=auto;html=1;endArrow=ERone;endFill=0;startArrow=ERzeroToMany;startFill=0;fillColor=#dae8fc;strokeColor=#6c8ebf;endSize=15;startSize=15;jumpStyle=arc;jumpSize=10;" parent="1" source="WdmZOjRlPLhk_2zMzAdh-68" target="NgOB-0QbWW0rU8fenpss-1" edge="1">
          <mxGeometry relative="1" as="geometry">
            <Array as="points">
              <mxPoint x="1420" y="1780" />
            </Array>
          </mxGeometry>
        </mxCell>
        <mxCell id="quq6CdoQyoU4DA2Fi2xT-1" value="Purchase Orders" style="swimlane;fontStyle=0;childLayout=stackLayout;horizontal=1;startSize=26;fillColor=none;horizontalStack=0;resizeParent=1;resizeParentMax=0;resizeLast=0;collapsible=1;marginBottom=0;whiteSpace=wrap;html=1;strokeColor=#66B2FF;" parent="1" vertex="1">
          <mxGeometry x="1230" y="2057" width="200" height="234" as="geometry" />
        </mxCell>
        <mxCell id="quq6CdoQyoU4DA2Fi2xT-2" value="orderID [PK]" style="text;strokeColor=none;fillColor=none;align=left;verticalAlign=top;spacingLeft=4;spacingRight=4;overflow=hidden;rotatable=0;points=[[0,0.5],[1,0.5]];portConstraint=eastwest;whiteSpace=wrap;html=1;" parent="quq6CdoQyoU4DA2Fi2xT-1" vertex="1">
          <mxGeometry y="26" width="200" height="26" as="geometry" />
        </mxCell>
        <mxCell id="quq6CdoQyoU4DA2Fi2xT-8" value="date" style="text;strokeColor=none;fillColor=none;align=left;verticalAlign=top;spacingLeft=4;spacingRight=4;overflow=hidden;rotatable=0;points=[[0,0.5],[1,0.5]];portConstraint=eastwest;whiteSpace=wrap;html=1;" parent="quq6CdoQyoU4DA2Fi2xT-1" vertex="1">
          <mxGeometry y="52" width="200" height="26" as="geometry" />
        </mxCell>
        <mxCell id="quq6CdoQyoU4DA2Fi2xT-3" value="supplyCode [FK]" style="text;strokeColor=none;fillColor=none;align=left;verticalAlign=top;spacingLeft=4;spacingRight=4;overflow=hidden;rotatable=0;points=[[0,0.5],[1,0.5]];portConstraint=eastwest;whiteSpace=wrap;html=1;" parent="quq6CdoQyoU4DA2Fi2xT-1" vertex="1">
          <mxGeometry y="78" width="200" height="26" as="geometry" />
        </mxCell>
        <mxCell id="quq6CdoQyoU4DA2Fi2xT-9" value="status [FK]" style="text;strokeColor=none;fillColor=none;align=left;verticalAlign=top;spacingLeft=4;spacingRight=4;overflow=hidden;rotatable=0;points=[[0,0.5],[1,0.5]];portConstraint=eastwest;whiteSpace=wrap;html=1;" parent="quq6CdoQyoU4DA2Fi2xT-1" vertex="1">
          <mxGeometry y="104" width="200" height="26" as="geometry" />
        </mxCell>
        <mxCell id="quq6CdoQyoU4DA2Fi2xT-5" value="quantity" style="text;strokeColor=none;fillColor=none;align=left;verticalAlign=top;spacingLeft=4;spacingRight=4;overflow=hidden;rotatable=0;points=[[0,0.5],[1,0.5]];portConstraint=eastwest;whiteSpace=wrap;html=1;" parent="quq6CdoQyoU4DA2Fi2xT-1" vertex="1">
          <mxGeometry y="130" width="200" height="26" as="geometry" />
        </mxCell>
        <mxCell id="quq6CdoQyoU4DA2Fi2xT-6" value="quantityUnit" style="text;strokeColor=none;fillColor=none;align=left;verticalAlign=top;spacingLeft=4;spacingRight=4;overflow=hidden;rotatable=0;points=[[0,0.5],[1,0.5]];portConstraint=eastwest;whiteSpace=wrap;html=1;" parent="quq6CdoQyoU4DA2Fi2xT-1" vertex="1">
          <mxGeometry y="156" width="200" height="26" as="geometry" />
        </mxCell>
        <mxCell id="quq6CdoQyoU4DA2Fi2xT-7" value="unitPrice" style="text;strokeColor=none;fillColor=none;align=left;verticalAlign=top;spacingLeft=4;spacingRight=4;overflow=hidden;rotatable=0;points=[[0,0.5],[1,0.5]];portConstraint=eastwest;whiteSpace=wrap;html=1;" parent="quq6CdoQyoU4DA2Fi2xT-1" vertex="1">
          <mxGeometry y="182" width="200" height="26" as="geometry" />
        </mxCell>
        <mxCell id="quq6CdoQyoU4DA2Fi2xT-4" value="totalPrice" style="text;strokeColor=none;fillColor=none;align=left;verticalAlign=top;spacingLeft=4;spacingRight=4;overflow=hidden;rotatable=0;points=[[0,0.5],[1,0.5]];portConstraint=eastwest;whiteSpace=wrap;html=1;" parent="quq6CdoQyoU4DA2Fi2xT-1" vertex="1">
          <mxGeometry y="208" width="200" height="26" as="geometry" />
        </mxCell>
        <mxCell id="quq6CdoQyoU4DA2Fi2xT-10" value="Work Orders" style="swimlane;fontStyle=0;childLayout=stackLayout;horizontal=1;startSize=26;fillColor=none;horizontalStack=0;resizeParent=1;resizeParentMax=0;resizeLast=0;collapsible=1;marginBottom=0;whiteSpace=wrap;html=1;strokeColor=#66B2FF;" parent="1" vertex="1">
          <mxGeometry x="1000" y="2044" width="200" height="260" as="geometry" />
        </mxCell>
        <mxCell id="quq6CdoQyoU4DA2Fi2xT-11" value="orderID [PK]" style="text;strokeColor=none;fillColor=none;align=left;verticalAlign=top;spacingLeft=4;spacingRight=4;overflow=hidden;rotatable=0;points=[[0,0.5],[1,0.5]];portConstraint=eastwest;whiteSpace=wrap;html=1;" parent="quq6CdoQyoU4DA2Fi2xT-10" vertex="1">
          <mxGeometry y="26" width="200" height="26" as="geometry" />
        </mxCell>
        <mxCell id="quq6CdoQyoU4DA2Fi2xT-12" value="date" style="text;strokeColor=none;fillColor=none;align=left;verticalAlign=top;spacingLeft=4;spacingRight=4;overflow=hidden;rotatable=0;points=[[0,0.5],[1,0.5]];portConstraint=eastwest;whiteSpace=wrap;html=1;" parent="quq6CdoQyoU4DA2Fi2xT-10" vertex="1">
          <mxGeometry y="52" width="200" height="26" as="geometry" />
        </mxCell>
        <mxCell id="quq6CdoQyoU4DA2Fi2xT-13" value="supplyCode [FK]" style="text;strokeColor=none;fillColor=none;align=left;verticalAlign=top;spacingLeft=4;spacingRight=4;overflow=hidden;rotatable=0;points=[[0,0.5],[1,0.5]];portConstraint=eastwest;whiteSpace=wrap;html=1;" parent="quq6CdoQyoU4DA2Fi2xT-10" vertex="1">
          <mxGeometry y="78" width="200" height="26" as="geometry" />
        </mxCell>
        <mxCell id="quq6CdoQyoU4DA2Fi2xT-18" value="status [FK]" style="text;strokeColor=none;fillColor=none;align=left;verticalAlign=top;spacingLeft=4;spacingRight=4;overflow=hidden;rotatable=0;points=[[0,0.5],[1,0.5]];portConstraint=eastwest;whiteSpace=wrap;html=1;" parent="quq6CdoQyoU4DA2Fi2xT-10" vertex="1">
          <mxGeometry y="104" width="200" height="26" as="geometry" />
        </mxCell>
        <mxCell id="quq6CdoQyoU4DA2Fi2xT-19" value="description" style="text;strokeColor=none;fillColor=none;align=left;verticalAlign=top;spacingLeft=4;spacingRight=4;overflow=hidden;rotatable=0;points=[[0,0.5],[1,0.5]];portConstraint=eastwest;whiteSpace=wrap;html=1;" parent="quq6CdoQyoU4DA2Fi2xT-10" vertex="1">
          <mxGeometry y="130" width="200" height="26" as="geometry" />
        </mxCell>
        <mxCell id="quq6CdoQyoU4DA2Fi2xT-20" value="serviceCompanyName" style="text;strokeColor=none;fillColor=none;align=left;verticalAlign=top;spacingLeft=4;spacingRight=4;overflow=hidden;rotatable=0;points=[[0,0.5],[1,0.5]];portConstraint=eastwest;whiteSpace=wrap;html=1;" parent="quq6CdoQyoU4DA2Fi2xT-10" vertex="1">
          <mxGeometry y="156" width="200" height="26" as="geometry" />
        </mxCell>
        <mxCell id="quq6CdoQyoU4DA2Fi2xT-21" value="serviceTechnicianName" style="text;strokeColor=none;fillColor=none;align=left;verticalAlign=top;spacingLeft=4;spacingRight=4;overflow=hidden;rotatable=0;points=[[0,0.5],[1,0.5]];portConstraint=eastwest;whiteSpace=wrap;html=1;" parent="quq6CdoQyoU4DA2Fi2xT-10" vertex="1">
          <mxGeometry y="182" width="200" height="26" as="geometry" />
        </mxCell>
        <mxCell id="quq6CdoQyoU4DA2Fi2xT-22" value="contact" style="text;strokeColor=none;fillColor=none;align=left;verticalAlign=top;spacingLeft=4;spacingRight=4;overflow=hidden;rotatable=0;points=[[0,0.5],[1,0.5]];portConstraint=eastwest;whiteSpace=wrap;html=1;" parent="quq6CdoQyoU4DA2Fi2xT-10" vertex="1">
          <mxGeometry y="208" width="200" height="26" as="geometry" />
        </mxCell>
        <mxCell id="quq6CdoQyoU4DA2Fi2xT-32" value="lastServiceDate" style="text;strokeColor=none;fillColor=none;align=left;verticalAlign=top;spacingLeft=4;spacingRight=4;overflow=hidden;rotatable=0;points=[[0,0.5],[1,0.5]];portConstraint=eastwest;whiteSpace=wrap;html=1;" parent="quq6CdoQyoU4DA2Fi2xT-10" vertex="1">
          <mxGeometry y="234" width="200" height="26" as="geometry" />
        </mxCell>
        <mxCell id="quq6CdoQyoU4DA2Fi2xT-40" value="Payroll" style="swimlane;fontStyle=0;childLayout=stackLayout;horizontal=1;startSize=26;fillColor=none;horizontalStack=0;resizeParent=1;resizeParentMax=0;resizeLast=0;collapsible=1;marginBottom=0;whiteSpace=wrap;html=1;strokeColor=#66B2FF;" parent="1" vertex="1">
          <mxGeometry x="820" y="1890" width="140" height="442" as="geometry" />
        </mxCell>
        <mxCell id="quq6CdoQyoU4DA2Fi2xT-41" value="paymentID [PK]" style="text;strokeColor=none;fillColor=none;align=left;verticalAlign=top;spacingLeft=4;spacingRight=4;overflow=hidden;rotatable=0;points=[[0,0.5],[1,0.5]];portConstraint=eastwest;whiteSpace=wrap;html=1;" parent="quq6CdoQyoU4DA2Fi2xT-40" vertex="1">
          <mxGeometry y="26" width="140" height="26" as="geometry" />
        </mxCell>
        <mxCell id="quq6CdoQyoU4DA2Fi2xT-42" value="date" style="text;strokeColor=none;fillColor=none;align=left;verticalAlign=top;spacingLeft=4;spacingRight=4;overflow=hidden;rotatable=0;points=[[0,0.5],[1,0.5]];portConstraint=eastwest;whiteSpace=wrap;html=1;" parent="quq6CdoQyoU4DA2Fi2xT-40" vertex="1">
          <mxGeometry y="52" width="140" height="26" as="geometry" />
        </mxCell>
        <mxCell id="quq6CdoQyoU4DA2Fi2xT-43" value="staffID [FK]" style="text;strokeColor=none;fillColor=none;align=left;verticalAlign=top;spacingLeft=4;spacingRight=4;overflow=hidden;rotatable=0;points=[[0,0.5],[1,0.5]];portConstraint=eastwest;whiteSpace=wrap;html=1;" parent="quq6CdoQyoU4DA2Fi2xT-40" vertex="1">
          <mxGeometry y="78" width="140" height="26" as="geometry" />
        </mxCell>
        <mxCell id="quq6CdoQyoU4DA2Fi2xT-47" value="payType [FK]" style="text;strokeColor=none;fillColor=none;align=left;verticalAlign=top;spacingLeft=4;spacingRight=4;overflow=hidden;rotatable=0;points=[[0,0.5],[1,0.5]];portConstraint=eastwest;whiteSpace=wrap;html=1;shadow=0;" parent="quq6CdoQyoU4DA2Fi2xT-40" vertex="1">
          <mxGeometry y="104" width="140" height="26" as="geometry" />
        </mxCell>
        <mxCell id="quq6CdoQyoU4DA2Fi2xT-44" value="staffTIN" style="text;strokeColor=none;fillColor=none;align=left;verticalAlign=top;spacingLeft=4;spacingRight=4;overflow=hidden;rotatable=0;points=[[0,0.5],[1,0.5]];portConstraint=eastwest;whiteSpace=wrap;html=1;" parent="quq6CdoQyoU4DA2Fi2xT-40" vertex="1">
          <mxGeometry y="130" width="140" height="26" as="geometry" />
        </mxCell>
        <mxCell id="tYauZJ5otqG5vfTE3sik-21" value="grossWages" style="text;strokeColor=none;fillColor=none;align=left;verticalAlign=top;spacingLeft=4;spacingRight=4;overflow=hidden;rotatable=0;points=[[0,0.5],[1,0.5]];portConstraint=eastwest;whiteSpace=wrap;html=1;" parent="quq6CdoQyoU4DA2Fi2xT-40" vertex="1">
          <mxGeometry y="156" width="140" height="26" as="geometry" />
        </mxCell>
        <mxCell id="tYauZJ5otqG5vfTE3sik-22" value="socialTaxableWages" style="text;strokeColor=none;fillColor=none;align=left;verticalAlign=top;spacingLeft=4;spacingRight=4;overflow=hidden;rotatable=0;points=[[0,0.5],[1,0.5]];portConstraint=eastwest;whiteSpace=wrap;html=1;" parent="quq6CdoQyoU4DA2Fi2xT-40" vertex="1">
          <mxGeometry y="182" width="140" height="26" as="geometry" />
        </mxCell>
        <mxCell id="tYauZJ5otqG5vfTE3sik-24" value="socialTax" style="text;strokeColor=none;fillColor=none;align=left;verticalAlign=top;spacingLeft=4;spacingRight=4;overflow=hidden;rotatable=0;points=[[0,0.5],[1,0.5]];portConstraint=eastwest;whiteSpace=wrap;html=1;" parent="quq6CdoQyoU4DA2Fi2xT-40" vertex="1">
          <mxGeometry y="208" width="140" height="26" as="geometry" />
        </mxCell>
        <mxCell id="tYauZJ5otqG5vfTE3sik-23" value="medicareTaxableWages" style="text;strokeColor=none;fillColor=none;align=left;verticalAlign=top;spacingLeft=4;spacingRight=4;overflow=hidden;rotatable=0;points=[[0,0.5],[1,0.5]];portConstraint=eastwest;whiteSpace=wrap;html=1;" parent="quq6CdoQyoU4DA2Fi2xT-40" vertex="1">
          <mxGeometry y="234" width="140" height="26" as="geometry" />
        </mxCell>
        <mxCell id="tYauZJ5otqG5vfTE3sik-25" value="medicareTax" style="text;strokeColor=none;fillColor=none;align=left;verticalAlign=top;spacingLeft=4;spacingRight=4;overflow=hidden;rotatable=0;points=[[0,0.5],[1,0.5]];portConstraint=eastwest;whiteSpace=wrap;html=1;" parent="quq6CdoQyoU4DA2Fi2xT-40" vertex="1">
          <mxGeometry y="260" width="140" height="26" as="geometry" />
        </mxCell>
        <mxCell id="tYauZJ5otqG5vfTE3sik-27" value="localTaxableWages" style="text;strokeColor=none;fillColor=none;align=left;verticalAlign=top;spacingLeft=4;spacingRight=4;overflow=hidden;rotatable=0;points=[[0,0.5],[1,0.5]];portConstraint=eastwest;whiteSpace=wrap;html=1;" parent="quq6CdoQyoU4DA2Fi2xT-40" vertex="1">
          <mxGeometry y="286" width="140" height="26" as="geometry" />
        </mxCell>
        <mxCell id="tYauZJ5otqG5vfTE3sik-26" value="localTax" style="text;strokeColor=none;fillColor=none;align=left;verticalAlign=top;spacingLeft=4;spacingRight=4;overflow=hidden;rotatable=0;points=[[0,0.5],[1,0.5]];portConstraint=eastwest;whiteSpace=wrap;html=1;" parent="quq6CdoQyoU4DA2Fi2xT-40" vertex="1">
          <mxGeometry y="312" width="140" height="26" as="geometry" />
        </mxCell>
        <mxCell id="tYauZJ5otqG5vfTE3sik-29" value="localName" style="text;strokeColor=none;fillColor=none;align=left;verticalAlign=top;spacingLeft=4;spacingRight=4;overflow=hidden;rotatable=0;points=[[0,0.5],[1,0.5]];portConstraint=eastwest;whiteSpace=wrap;html=1;" parent="quq6CdoQyoU4DA2Fi2xT-40" vertex="1">
          <mxGeometry y="338" width="140" height="26" as="geometry" />
        </mxCell>
        <mxCell id="tYauZJ5otqG5vfTE3sik-30" value="stateTaxableWages" style="text;strokeColor=none;fillColor=none;align=left;verticalAlign=top;spacingLeft=4;spacingRight=4;overflow=hidden;rotatable=0;points=[[0,0.5],[1,0.5]];portConstraint=eastwest;whiteSpace=wrap;html=1;" parent="quq6CdoQyoU4DA2Fi2xT-40" vertex="1">
          <mxGeometry y="364" width="140" height="26" as="geometry" />
        </mxCell>
        <mxCell id="quq6CdoQyoU4DA2Fi2xT-46" value="stateTax" style="text;strokeColor=none;fillColor=none;align=left;verticalAlign=top;spacingLeft=4;spacingRight=4;overflow=hidden;rotatable=0;points=[[0,0.5],[1,0.5]];portConstraint=eastwest;whiteSpace=wrap;html=1;" parent="quq6CdoQyoU4DA2Fi2xT-40" vertex="1">
          <mxGeometry y="390" width="140" height="26" as="geometry" />
        </mxCell>
        <mxCell id="quq6CdoQyoU4DA2Fi2xT-45" value="fedTax" style="text;strokeColor=none;fillColor=none;align=left;verticalAlign=top;spacingLeft=4;spacingRight=4;overflow=hidden;rotatable=0;points=[[0,0.5],[1,0.5]];portConstraint=eastwest;whiteSpace=wrap;html=1;" parent="quq6CdoQyoU4DA2Fi2xT-40" vertex="1">
          <mxGeometry y="416" width="140" height="26" as="geometry" />
        </mxCell>
        <mxCell id="tYauZJ5otqG5vfTE3sik-1" value="Pay Type Lookup Table" style="swimlane;fontStyle=0;childLayout=stackLayout;horizontal=1;startSize=26;fillColor=none;horizontalStack=0;resizeParent=1;resizeParentMax=0;resizeLast=0;collapsible=1;marginBottom=0;whiteSpace=wrap;html=1;strokeColor=#66B2FF;" parent="1" vertex="1">
          <mxGeometry x="640" y="2200" width="140" height="104" as="geometry" />
        </mxCell>
        <mxCell id="tYauZJ5otqG5vfTE3sik-2" value="payTypeID [PK]" style="text;strokeColor=none;fillColor=none;align=left;verticalAlign=top;spacingLeft=4;spacingRight=4;overflow=hidden;rotatable=0;points=[[0,0.5],[1,0.5]];portConstraint=eastwest;whiteSpace=wrap;html=1;" parent="tYauZJ5otqG5vfTE3sik-1" vertex="1">
          <mxGeometry y="26" width="140" height="26" as="geometry" />
        </mxCell>
        <mxCell id="tYauZJ5otqG5vfTE3sik-3" value="paymentType" style="text;strokeColor=none;fillColor=none;align=left;verticalAlign=top;spacingLeft=4;spacingRight=4;overflow=hidden;rotatable=0;points=[[0,0.5],[1,0.5]];portConstraint=eastwest;whiteSpace=wrap;html=1;" parent="tYauZJ5otqG5vfTE3sik-1" vertex="1">
          <mxGeometry y="52" width="140" height="26" as="geometry" />
        </mxCell>
        <mxCell id="tYauZJ5otqG5vfTE3sik-11" value="taxDocumentType" style="text;strokeColor=none;fillColor=none;align=left;verticalAlign=top;spacingLeft=4;spacingRight=4;overflow=hidden;rotatable=0;points=[[0,0.5],[1,0.5]];portConstraint=eastwest;whiteSpace=wrap;html=1;" parent="tYauZJ5otqG5vfTE3sik-1" vertex="1">
          <mxGeometry y="78" width="140" height="26" as="geometry" />
        </mxCell>
        <mxCell id="tYauZJ5otqG5vfTE3sik-10" style="edgeStyle=orthogonalEdgeStyle;rounded=0;orthogonalLoop=1;jettySize=auto;html=1;startArrow=ERmandOne;startFill=0;endArrow=ERzeroToMany;endFill=0;endSize=15;startSize=15;jumpStyle=arc;jumpSize=10;" parent="1" source="3rsIc_qw5QkhjrmrZdHb-17" target="WdmZOjRlPLhk_2zMzAdh-162" edge="1">
          <mxGeometry relative="1" as="geometry">
            <Array as="points">
              <mxPoint x="40" y="2059" />
              <mxPoint x="40" y="2059" />
            </Array>
          </mxGeometry>
        </mxCell>
        <mxCell id="tYauZJ5otqG5vfTE3sik-12" style="edgeStyle=orthogonalEdgeStyle;rounded=0;orthogonalLoop=1;jettySize=auto;html=1;startArrow=ERzeroToMany;startFill=0;endArrow=ERmandOne;endFill=0;fillColor=#dae8fc;strokeColor=#6c8ebf;endSize=15;startSize=15;jumpStyle=arc;jumpSize=10;" parent="1" source="WdmZOjRlPLhk_2zMzAdh-111" target="tYauZJ5otqG5vfTE3sik-1" edge="1">
          <mxGeometry relative="1" as="geometry">
            <mxPoint x="590" y="2150" as="sourcePoint" />
            <Array as="points">
              <mxPoint x="560" y="2252" />
            </Array>
          </mxGeometry>
        </mxCell>
        <mxCell id="tYauZJ5otqG5vfTE3sik-13" style="edgeStyle=orthogonalEdgeStyle;rounded=0;orthogonalLoop=1;jettySize=auto;html=1;startArrow=ERzeroToMany;startFill=0;endArrow=ERmandOne;endFill=0;fillColor=#dae8fc;strokeColor=#6c8ebf;endSize=15;startSize=15;jumpStyle=arc;jumpSize=10;" parent="1" source="quq6CdoQyoU4DA2Fi2xT-47" target="tYauZJ5otqG5vfTE3sik-1" edge="1">
          <mxGeometry relative="1" as="geometry">
            <Array as="points">
              <mxPoint x="730" y="2007" />
            </Array>
          </mxGeometry>
        </mxCell>
        <mxCell id="tYauZJ5otqG5vfTE3sik-14" style="edgeStyle=orthogonalEdgeStyle;rounded=0;orthogonalLoop=1;jettySize=auto;html=1;startArrow=ERzeroToMany;startFill=0;endArrow=ERmandOne;endFill=0;fillColor=#dae8fc;strokeColor=#6c8ebf;endSize=15;startSize=15;jumpStyle=arc;jumpSize=10;" parent="1" source="quq6CdoQyoU4DA2Fi2xT-40" target="WdmZOjRlPLhk_2zMzAdh-111" edge="1">
          <mxGeometry relative="1" as="geometry">
            <Array as="points">
              <mxPoint x="730" y="1910" />
              <mxPoint x="730" y="1910" />
            </Array>
          </mxGeometry>
        </mxCell>
        <mxCell id="tYauZJ5otqG5vfTE3sik-17" style="edgeStyle=orthogonalEdgeStyle;rounded=0;orthogonalLoop=1;jettySize=auto;html=1;endArrow=ERmandOne;endFill=0;startArrow=ERzeroToMany;startFill=0;fillColor=#dae8fc;strokeColor=#6c8ebf;endSize=15;startSize=15;jumpStyle=arc;jumpSize=10;" parent="1" source="quq6CdoQyoU4DA2Fi2xT-1" target="NgOB-0QbWW0rU8fenpss-1" edge="1">
          <mxGeometry relative="1" as="geometry">
            <Array as="points">
              <mxPoint x="1500" y="2160" />
            </Array>
          </mxGeometry>
        </mxCell>
        <mxCell id="tYauZJ5otqG5vfTE3sik-18" style="edgeStyle=orthogonalEdgeStyle;rounded=0;orthogonalLoop=1;jettySize=auto;html=1;endArrow=ERmandOne;endFill=0;startArrow=ERzeroToMany;startFill=0;fillColor=#dae8fc;strokeColor=#6c8ebf;endSize=15;startSize=15;jumpStyle=arc;jumpSize=10;" parent="1" source="quq6CdoQyoU4DA2Fi2xT-10" target="NgOB-0QbWW0rU8fenpss-1" edge="1">
          <mxGeometry relative="1" as="geometry">
            <Array as="points">
              <mxPoint x="1100" y="1910" />
              <mxPoint x="1450" y="1910" />
            </Array>
          </mxGeometry>
        </mxCell>
        <mxCell id="tYauZJ5otqG5vfTE3sik-19" style="edgeStyle=orthogonalEdgeStyle;rounded=0;orthogonalLoop=1;jettySize=auto;html=1;startArrow=ERzeroToMany;startFill=0;endArrow=ERmandOne;endFill=0;fillColor=#dae8fc;strokeColor=#6c8ebf;endSize=15;startSize=15;jumpStyle=arc;jumpSize=10;" parent="1" source="quq6CdoQyoU4DA2Fi2xT-10" target="3rsIc_qw5QkhjrmrZdHb-17" edge="1">
          <mxGeometry relative="1" as="geometry">
            <Array as="points">
              <mxPoint x="1080" y="2350" />
              <mxPoint x="390" y="2350" />
            </Array>
          </mxGeometry>
        </mxCell>
        <mxCell id="tYauZJ5otqG5vfTE3sik-20" style="edgeStyle=orthogonalEdgeStyle;rounded=0;orthogonalLoop=1;jettySize=auto;html=1;startArrow=ERzeroToMany;startFill=0;endArrow=ERmandOne;endFill=0;fillColor=#dae8fc;strokeColor=#6c8ebf;endSize=15;startSize=15;jumpStyle=arc;jumpSize=10;" parent="1" source="quq6CdoQyoU4DA2Fi2xT-1" target="3rsIc_qw5QkhjrmrZdHb-17" edge="1">
          <mxGeometry relative="1" as="geometry">
            <mxPoint x="1176" y="2050" as="sourcePoint" />
            <mxPoint x="500" y="2089" as="targetPoint" />
            <Array as="points">
              <mxPoint x="1300" y="2360" />
              <mxPoint x="350" y="2360" />
            </Array>
          </mxGeometry>
        </mxCell>
        <mxCell id="tYauZJ5otqG5vfTE3sik-36" style="edgeStyle=orthogonalEdgeStyle;rounded=0;orthogonalLoop=1;jettySize=auto;html=1;endArrow=ERzeroToMany;endFill=0;startArrow=ERmandOne;startFill=0;endSize=15;startSize=15;jumpStyle=arc;jumpSize=10;" parent="1" source="WdmZOjRlPLhk_2zMzAdh-137" target="WdmZOjRlPLhk_2zMzAdh-140" edge="1">
          <mxGeometry relative="1" as="geometry">
            <Array as="points">
              <mxPoint x="-570" y="1875" />
              <mxPoint x="-570" y="1875" />
            </Array>
          </mxGeometry>
        </mxCell>
        <mxCell id="Tyf-H2eqfvU3GgdiiMwc-10" style="edgeStyle=orthogonalEdgeStyle;rounded=0;orthogonalLoop=1;jettySize=auto;html=1;endArrow=ERmandOne;endFill=0;startArrow=ERoneToMany;startFill=0;endSize=15;startSize=15;jumpStyle=arc;jumpSize=10;strokeColor=#66B2FF;" parent="1" source="WdmZOjRlPLhk_2zMzAdh-111" target="IWIvYSxlYLz9XEMbi_1u-2" edge="1">
          <mxGeometry relative="1" as="geometry">
            <mxPoint x="296" y="1708" as="targetPoint" />
            <Array as="points">
              <mxPoint x="430" y="1790" />
              <mxPoint x="430" y="1790" />
            </Array>
            <mxPoint x="200" y="1630" as="sourcePoint" />
          </mxGeometry>
        </mxCell>
      </root>
    </mxGraphModel>
  </diagram>
</mxfile>
